<?xml version="1.0" encoding="iso-8859-1"?>
<!-- Generator: Adobe Illustrator 23.0.1, SVG Export Plug-In . SVG Version: 6.00 Build 0)  -->
<svg version="1.1" id="account-layer" xmlns="http://www.w3.org/2000/svg" xmlns:xlink="http://www.w3.org/1999/xlink" x="0px"
	 y="0px" viewBox="0 0 18 18" style="enable-background:new 0 0 18 18;" xml:space="preserve">
<g id="account">
	<rect y="0" style="opacity:0.25;fill:none;" width="18" height="18"/>
	<path d="M16.5,5h-15C0.675,5,0,5.675,0,6.5v10C0,17.325,0.675,18,1.5,18h15c0.825,0,1.5-0.675,1.5-1.5v-10
		C18,5.675,17.325,5,16.5,5z M16.8,16.5c0,0.163-0.137,0.3-0.3,0.3h-15c-0.163,0-0.3-0.137-0.3-0.3v-10c0-0.163,0.137-0.3,0.3-0.3
		h15c0.163,0,0.3,0.137,0.3,0.3V16.5z M3,12h2v-2H3V12z M14.8,2.6H3.2C2.537,2.6,2,3.137,2,3.8h14C16,3.137,15.463,2.6,14.8,2.6z
		 M12.8,0H5.2C4.537,0,4,0.537,4,1.2h10C14,0.537,13.463,0,12.8,0z"/>
</g>
</svg>
