<?xml version="1.0" encoding="iso-8859-1"?>
<!-- Generator: Adobe Illustrator 23.0.1, SVG Export Plug-In . SVG Version: 6.00 Build 0)  -->
<svg version="1.1" id="alert-layer" xmlns="http://www.w3.org/2000/svg" xmlns:xlink="http://www.w3.org/1999/xlink" x="0px"
	 y="0px" viewBox="0 0 18 18" style="enable-background:new 0 0 18 18;" xml:space="preserve">
<g id="alert">
	<rect y="0" style="opacity:0.25;fill:none;" width="18" height="18"/>
	<path d="M17.293,13.293L15,11V6.252c0-3.285-2.532-6.15-5.815-6.249C9.123,0.001,9.061,0,9,0C5.686,0,3,2.686,3,6v5l-2.293,2.293
		C0.077,13.923,0.523,15,1.414,15h5.148C6.527,15.162,6.5,15.327,6.5,15.5C6.5,16.881,7.619,18,9,18c1.381,0,2.5-1.119,2.5-2.5
		c0-0.173-0.027-0.338-0.062-0.5h5.148C17.477,15,17.923,13.923,17.293,13.293z M10.3,15.5c0,0.717-0.583,1.3-1.3,1.3
		c-0.717,0-1.3-0.583-1.3-1.3c0-0.181,0.049-0.346,0.119-0.5h2.363C10.251,15.154,10.3,15.319,10.3,15.5z M1.897,13.8l1.951-1.952
		L4.2,11.497V11V6c0-2.647,2.153-4.8,4.8-4.8l0.148,0.002C11.713,1.279,13.8,3.544,13.8,6.252V11v0.497l0.352,0.351l1.952,1.952
		H1.897z"/>
</g>
</svg>
