<?xml version="1.0" encoding="iso-8859-1"?>
<!-- Generator: Adobe Illustrator 23.0.1, SVG Export Plug-In . SVG Version: 6.00 Build 0)  -->
<svg version="1.1" id="assets-layer" xmlns="http://www.w3.org/2000/svg" xmlns:xlink="http://www.w3.org/1999/xlink" x="0px"
	 y="0px" viewBox="0 0 18 18" style="enable-background:new 0 0 18 18;" xml:space="preserve">
<g id="assets">
	<rect y="0" style="opacity:0.25;fill:none;" width="18" height="18"/>
	<g>
		<path d="M9.773,12.539C9.609,12.89,8.208,13.8,5.5,13.8c-2.744,0-4.15-0.936-4.282-1.264c-0.4-0.173-0.762-0.37-1.077-0.591
			C0.052,12.124,0,12.309,0,12.5C0,13.881,2.462,15,5.5,15s5.5-1.119,5.5-2.5c0-0.191-0.052-0.376-0.141-0.555
			C10.542,12.168,10.177,12.366,9.773,12.539z"/>
		<path d="M9.773,15.539C9.609,15.89,8.208,16.8,5.5,16.8c-2.744,0-4.15-0.936-4.282-1.264c-0.4-0.173-0.762-0.37-1.077-0.591
			C0.052,15.124,0,15.309,0,15.5C0,16.881,2.462,18,5.5,18s5.5-1.119,5.5-2.5c0-0.191-0.052-0.376-0.141-0.555
			C10.542,15.168,10.177,15.366,9.773,15.539z"/>
		<path d="M11.5,0L5.812,5.688C6.359,5.7,6.884,5.742,7.382,5.814L11.5,1.697l5.3,5.299v5.785H14V7h-3.221
			c0.514,0.346,0.91,0.751,1.173,1.2H12.8v5.781H18V6.499L11.5,0z"/>
		<path d="M5.5,7C2.462,7,0,8.119,0,9.5C0,10.881,2.462,12,5.5,12S11,10.881,11,9.5C11,8.119,8.538,7,5.5,7z M5.5,10.8
			c-2.817,0-4.235-0.991-4.301-1.294C1.265,9.191,2.683,8.2,5.5,8.2s4.235,0.991,4.301,1.294C9.735,9.809,8.317,10.8,5.5,10.8z"/>
	</g>
</g>
</svg>
