<?xml version="1.0" encoding="iso-8859-1"?>
<!-- Generator: Adobe Illustrator 23.0.1, SVG Export Plug-In . SVG Version: 6.00 Build 0)  -->
<svg version="1.1" id="block-layer" xmlns="http://www.w3.org/2000/svg" xmlns:xlink="http://www.w3.org/1999/xlink" x="0px"
	 y="0px" viewBox="0 0 18 18" style="enable-background:new 0 0 18 18;" xml:space="preserve">
<g id="block">
	<rect y="0" style="opacity:0.25;fill:none;" width="18" height="18"/>
	<path d="M9,0C4.03,0,0,4.029,0,9s4.03,9,9,9s9-4.029,9-9S13.97,0,9,0z M9,1.2c1.935,0,3.704,0.712,5.068,1.883L3.083,14.069
		C1.913,12.704,1.2,10.935,1.2,9C1.2,4.699,4.699,1.2,9,1.2z M9,16.8c-1.935,0-3.704-0.712-5.068-1.883L14.917,3.931
		C16.087,5.296,16.8,7.065,16.8,9C16.8,13.301,13.301,16.8,9,16.8z"/>
</g>
</svg>
