<?xml version="1.0" encoding="iso-8859-1"?>
<!-- Generator: Adobe Illustrator 23.0.1, SVG Export Plug-In . SVG Version: 6.00 Build 0)  -->
<svg version="1.1" id="calculator_x5F_currency-layer"
	 xmlns="http://www.w3.org/2000/svg" xmlns:xlink="http://www.w3.org/1999/xlink" x="0px" y="0px" viewBox="0 0 18 18"
	 style="enable-background:new 0 0 18 18;" xml:space="preserve">
<g id="calculator_x5F_currency">
	<rect y="0" style="opacity:0.25;fill:none;" width="18" height="18"/>
	<path d="M12.8,13.2h2.762c-1.388,2.161-3.808,3.6-6.562,3.6c-4.301,0-7.8-3.499-7.8-7.8c0-0.621,0.081-1.221,0.219-1.8H0.194
		C0.073,7.782,0,8.382,0,9c0,4.971,4.029,9,9,9c3.132,0,5.888-1.602,7.5-4.029V16.9l1.2-1.2V12H14L12.8,13.2z M9,0
		C5.868,0,3.112,1.602,1.5,4.029V1.1L0.3,2.3V6H4l1.2-1.2H2.438C3.826,2.639,6.246,1.2,9,1.2c4.301,0,7.8,3.499,7.8,7.8
		c0,0.621-0.081,1.221-0.219,1.8h1.225C17.927,10.218,18,9.618,18,9C18,4.029,13.971,0,9,0z M8.936,11.648
		c-1.283,0-1.292-0.651-1.295-0.866L6.44,10.8c0.016,1.108,0.753,1.847,1.959,2.012V14h1.2v-1.216
		c1.193-0.215,1.959-1.01,1.959-2.121c0-1.494-1.342-1.91-2.063-2.135l0,0L8.859,8.325c-0.957-0.297-1.219-0.51-1.219-0.988
		c0-0.914,1.089-0.985,1.423-0.985c1.283,0,1.292,0.651,1.295,0.866l1.2-0.018C11.544,6.092,10.807,5.353,9.6,5.188V4H8.4v1.216
		C7.207,5.431,6.44,6.226,6.44,7.337c0,1.494,1.342,1.91,2.059,2.133l0.637,0.203l0.004,0.002c0.957,0.297,1.219,0.51,1.219,0.988
		C10.359,11.577,9.27,11.648,8.936,11.648z"/>
</g>
</svg>
