<?xml version="1.0" encoding="iso-8859-1"?>
<!-- Generator: Adobe Illustrator 23.0.1, SVG Export Plug-In . SVG Version: 6.00 Build 0)  -->
<svg version="1.1" id="calendar-layer" xmlns="http://www.w3.org/2000/svg" xmlns:xlink="http://www.w3.org/1999/xlink" x="0px"
	 y="0px" viewBox="0 0 18 18" style="enable-background:new 0 0 18 18;" xml:space="preserve">
<g id="calendar">
	<rect y="0" style="opacity:0.25;fill:none;" width="18" height="18"/>
	<path d="M15,1V0h-1.2v1H4.2V0H3v1H0v17l14.2,0v0l3.8-3.8V1H15z M14.2,16.303V14.2h2.103L14.2,16.303z M16.8,13H13v3.8H1.2V6h15.6
		V13z M16.8,4.8H1.2V2.2H3v1.3h1.2V2.2h9.6v1.3H15V2.2h1.8V4.8z M8.8,10.029V15H10V7.971L7.003,9.667l0.591,1.045L8.8,10.029z"/>
</g>
</svg>
