<?xml version="1.0" encoding="iso-8859-1"?>
<!-- Generator: Adobe Illustrator 23.0.1, SVG Export Plug-In . SVG Version: 6.00 Build 0)  -->
<svg version="1.1" id="camera-layer" xmlns="http://www.w3.org/2000/svg" xmlns:xlink="http://www.w3.org/1999/xlink" x="0px"
	 y="0px" viewBox="0 0 18 18" style="enable-background:new 0 0 18 18;" xml:space="preserve">
<g id="camera_1_">
	<rect style="opacity:0.25;fill:none;" width="18" height="18"/>
	<path d="M16.5,4.5h-2.352l-1.236-3.06c-0.23-0.568-0.781-0.94-1.394-0.94H6.482c-0.613,0-1.164,0.372-1.394,0.94L3.852,4.5H1.5
		C0.675,4.5,0,5.175,0,6v10c0,0.825,0.675,1.5,1.5,1.5h15c0.825,0,1.5-0.675,1.5-1.5V6C18,5.175,17.325,4.5,16.5,4.5z M16.8,16
		c0,0.163-0.137,0.3-0.3,0.3h-15c-0.163,0-0.3-0.137-0.3-0.3V6c0-0.163,0.137-0.3,0.3-0.3h3.161l1.54-3.81
		C6.247,1.774,6.358,1.7,6.482,1.7h5.036c0.124,0,0.235,0.074,0.281,0.19l1.54,3.81H16.5c0.163,0,0.3,0.137,0.3,0.3V16z M9,5.5
		c-2.485,0-4.5,2.015-4.5,4.5c0,2.485,2.015,4.5,4.5,4.5s4.5-2.015,4.5-4.5C13.5,7.515,11.485,5.5,9,5.5z M9,13.3
		c-1.82,0-3.3-1.48-3.3-3.3S7.18,6.7,9,6.7s3.3,1.48,3.3,3.3S10.82,13.3,9,13.3z"/>
</g>
</svg>
