<?xml version="1.0" encoding="iso-8859-1"?>
<!-- Generator: Adobe Illustrator 23.0.1, SVG Export Plug-In . SVG Version: 6.00 Build 0)  -->
<svg version="1.1" id="card_x5F_manage-layer" xmlns="http://www.w3.org/2000/svg" xmlns:xlink="http://www.w3.org/1999/xlink"
	 x="0px" y="0px" viewBox="0 0 18 18" style="enable-background:new 0 0 18 18;" xml:space="preserve">
<g id="card_x5F_manage">
	<rect y="0" style="opacity:0.25;fill:none;" width="18" height="18"/>
	<g>
		<path d="M9.555,10.181l0.418-0.986L8.805,8.027L7.819,8.445C7.471,8.247,7.105,8.095,6.727,7.992L6.326,7H4.674L4.273,7.992
			C3.895,8.095,3.529,8.246,3.181,8.445L2.195,8.027L1.027,9.195l0.418,0.986c-0.199,0.348-0.351,0.714-0.453,1.092L0,11.674v1.652
			l0.992,0.401c0.102,0.378,0.254,0.744,0.453,1.092l-0.418,0.986l1.168,1.168l0.986-0.418c0.348,0.199,0.714,0.351,1.092,0.453
			L4.674,18h1.652l0.401-0.992c0.378-0.103,0.744-0.254,1.092-0.453l0.986,0.418l1.168-1.168l-0.418-0.986
			c0.199-0.348,0.351-0.714,0.453-1.092L11,13.326v-1.652l-0.992-0.401C9.905,10.895,9.753,10.529,9.555,10.181z M5.5,15.892
			c-1.873,0-3.392-1.519-3.392-3.392S3.627,9.108,5.5,9.108s3.392,1.519,3.392,3.392S7.373,15.892,5.5,15.892z"/>
		<path d="M16.5,0h-12C3.675,0,3,0.675,3,1.5v5c0.383-0.16,0.784-0.285,1.2-0.369V4.2h12.6v6.3c0,0.163-0.137,0.3-0.3,0.3h-4.732
			c0.105,0.387,0.176,0.788,0.207,1.2H16.5c0.825,0,1.5-0.675,1.5-1.5v-9C18,0.675,17.325,0,16.5,0z M16.8,3H4.2V1.5
			c0-0.163,0.137-0.3,0.3-0.3h12c0.163,0,0.3,0.137,0.3,0.3V3z"/>
		<rect x="12" y="6" width="3" height="1.2"/>
	</g>
</g>
</svg>
