<?xml version="1.0" encoding="iso-8859-1"?>
<!-- Generator: Adobe Illustrator 23.0.1, SVG Export Plug-In . SVG Version: 6.00 Build 0)  -->
<svg version="1.1" id="card-layer" xmlns="http://www.w3.org/2000/svg" xmlns:xlink="http://www.w3.org/1999/xlink" x="0px" y="0px"
	 viewBox="0 0 18 18" style="enable-background:new 0 0 18 18;" xml:space="preserve">
<g id="card">
	<rect y="0" style="opacity:0.25;fill:none;" width="18" height="18"/>
	<path d="M16.5,6h-15C0.675,6,0,6.675,0,7.5v9C0,17.325,0.675,18,1.5,18h15c0.825,0,1.5-0.675,1.5-1.5v-9C18,6.675,17.325,6,16.5,6z
		 M16.8,16.5c0,0.163-0.137,0.3-0.3,0.3h-15c-0.163,0-0.3-0.137-0.3-0.3v-6.3h15.6V16.5z M16.8,9H1.2V7.5c0-0.163,0.137-0.3,0.3-0.3
		h15c0.163,0,0.3,0.137,0.3,0.3V9z M15,12h-3v1.2h3V12z M13.05,1.221C13.085,1.207,13.122,1.2,13.159,1.2
		c0.103,0,0.23,0.058,0.282,0.187L14.82,4.8h1.294l-1.561-3.862C14.318,0.355,13.753,0,13.159,0c-0.186,0-0.375,0.035-0.558,0.109
		L0.988,4.8h3.204L13.05,1.221z"/>
</g>
</svg>
