<?xml version="1.0" encoding="iso-8859-1"?>
<!-- Generator: Adobe Illustrator 23.0.1, SVG Export Plug-In . SVG Version: 6.00 Build 0)  -->
<svg version="1.1" id="card_x5F_report-layer" xmlns="http://www.w3.org/2000/svg" xmlns:xlink="http://www.w3.org/1999/xlink"
	 x="0px" y="0px" viewBox="0 0 18 18" style="enable-background:new 0 0 18 18;" xml:space="preserve">
<g id="card_x5F_report">
	<rect y="0" style="opacity:0.25;fill:none;" width="18" height="18"/>
	<path d="M16.5,0h-12C3.675,0,3,0.675,3,1.5v3.963c0.383-0.177,0.784-0.319,1.2-0.426V4.2h12.6v6.3c0,0.163-0.137,0.3-0.3,0.3
		h-3.408c0.066,0.391,0.108,0.79,0.108,1.2h3.3c0.825,0,1.5-0.675,1.5-1.5v-9C18,0.675,17.325,0,16.5,0z M16.8,3H4.2V1.5
		c0-0.163,0.137-0.3,0.3-0.3h12c0.163,0,0.3,0.137,0.3,0.3V3z M15,6h-3v1.2h3V6z M6,6c-3.314,0-6,2.686-6,6s2.686,6,6,6s6-2.686,6-6
		S9.314,6,6,6z M6,16.8c-2.647,0-4.8-2.153-4.8-4.8S3.353,7.2,6,7.2s4.8,2.153,4.8,4.8S8.647,16.8,6,16.8z M6.6,9H5.4v4h1.2V9z
		 M6,13.6c-0.387,0-0.7,0.313-0.7,0.7S5.613,15,6,15s0.7-0.313,0.7-0.7S6.386,13.6,6,13.6z"/>
</g>
</svg>
