<?xml version="1.0" encoding="iso-8859-1"?>
<!-- Generator: Adobe Illustrator 23.0.1, SVG Export Plug-In . SVG Version: 6.00 Build 0)  -->
<svg version="1.1" id="chat_x5F_ai-layer" xmlns="http://www.w3.org/2000/svg" xmlns:xlink="http://www.w3.org/1999/xlink" x="0px"
	 y="0px" viewBox="0 0 18 18" style="enable-background:new 0 0 18 18;" xml:space="preserve">
<g id="chat_x5F_ai">
	<g style="opacity:0.25;">
		<rect y="0" style="fill:none;" width="18" height="18"/>
	</g>
	<path d="M6,6c0.552,0,1-0.448,1-1c0-0.552-0.448-1-1-1S5,4.448,5,5C5,5.552,5.448,6,6,6z M12,6c0.552,0,1-0.448,1-1
		c0-0.552-0.448-1-1-1s-1,0.448-1,1C11,5.552,11.448,6,12,6z M0,0v18l4-4h14V0H0z M16.8,12.8H4H3.503l-0.352,0.351L1.2,15.103V1.2
		h15.6V12.8z M6,9.474C6.838,10.109,7.87,10.5,9,10.5s2.162-0.391,3-1.026V8.118C11.266,8.958,10.2,9.5,9,9.5S6.734,8.958,6,8.118
		V9.474z"/>
</g>
</svg>
