<?xml version="1.0" encoding="iso-8859-1"?>
<!-- Generator: Adobe Illustrator 23.0.1, SVG Export Plug-In . SVG Version: 6.00 Build 0)  -->
<svg version="1.1" id="cheque_x5F_deposit-layer" xmlns="http://www.w3.org/2000/svg" xmlns:xlink="http://www.w3.org/1999/xlink"
	 x="0px" y="0px" viewBox="0 0 18 18" style="enable-background:new 0 0 18 18;" xml:space="preserve">
<g id="cheque_x5F_deposit">
	<rect y="0" style="opacity:0.25;fill:none;" width="18" height="18"/>
	<path d="M13.8,16.801H4.2V2.4H3V18h12V2.4h-1.2V16.801z M8.8,6v9H12V6H8.8z M10.8,13.8H10V7.2h0.8V13.8z M6,10v5h1.2v-5H6z
		 M15.873,0H2.127C0.955,0,0,0.941,0,2.1c0,1.047,0.783,1.91,1.8,2.067V2.936C1.451,2.806,1.2,2.483,1.2,2.1
		c0-0.496,0.416-0.9,0.927-0.9h13.745c0.511,0,0.927,0.404,0.927,0.9c0,0.383-0.251,0.706-0.6,0.836v1.231
		C17.217,4.01,18,3.147,18,2.1C18,0.941,17.045,0,15.873,0z"/>
</g>
</svg>
