<?xml version="1.0" encoding="iso-8859-1"?>
<!-- Generator: Adobe Illustrator 23.0.1, SVG Export Plug-In . SVG Version: 6.00 Build 0)  -->
<svg version="1.1" id="client_x5F_management-layer"
	 xmlns="http://www.w3.org/2000/svg" xmlns:xlink="http://www.w3.org/1999/xlink" x="0px" y="0px" viewBox="0 0 18 18"
	 style="enable-background:new 0 0 18 18;" xml:space="preserve">
<g id="client_x5F_management">
	<rect y="0" style="opacity:0.25;fill:none;" width="18" height="18"/>
	<path d="M16,0H5v2.8h1.2V1.2H16c0.441,0,0.8,0.359,0.8,0.8v11c0,0.441-0.359,0.8-0.8,0.8h-2.8V15H16c1.105,0,2-0.895,2-2V2
		C18,0.895,17.105,0,16,0z M8.2,4H7v0H0v14h12V9V7.8L8.2,4L8.2,4z M10.8,16.8H1.2V5.2H7V9h3.8V16.8z M10.303,7.8H8.2V5.697
		L10.303,7.8z M15,3H8.897l1.2,1.2H15V3z"/>
</g>
</svg>
