<?xml version="1.0" encoding="iso-8859-1"?>
<!-- Generator: Adobe Illustrator 23.0.1, SVG Export Plug-In . SVG Version: 6.00 Build 0)  -->
<svg version="1.1" id="collapse-layer" xmlns="http://www.w3.org/2000/svg" xmlns:xlink="http://www.w3.org/1999/xlink" x="0px"
	 y="0px" viewBox="0 0 18 18" style="enable-background:new 0 0 18 18;" xml:space="preserve">
<g id="collapse">
	<g style="opacity:0.25;">
		<rect y="0" style="fill:none;" width="18" height="18"/>
	</g>
	<g>
		<polygon points="18,5.8 13.048,5.8 17.924,0.924 17.076,0.076 12.2,4.952 12.2,0 11,1.2 11,7 16.8,7 		"/>
		<polygon points="5.8,4.952 0.924,0.076 0.076,0.924 4.952,5.8 0,5.8 1.2,7 7,7 7,1.2 5.8,0 		"/>
		<polygon points="12.2,13.048 17.076,17.924 17.924,17.076 13.048,12.2 18,12.2 16.8,11 11,11 11,16.8 12.2,18 		"/>
		<polygon points="0,12.2 4.952,12.2 0.076,17.076 0.924,17.924 5.8,13.048 5.8,18 7,16.8 7,11 1.2,11 		"/>
	</g>
</g>
</svg>
