<?xml version="1.0" encoding="iso-8859-1"?>
<!-- Generator: Adobe Illustrator 23.0.1, SVG Export Plug-In . SVG Version: 6.00 Build 0)  -->
<svg version="1.1" id="compose-layer" xmlns="http://www.w3.org/2000/svg" xmlns:xlink="http://www.w3.org/1999/xlink" x="0px"
	 y="0px" viewBox="0 0 18 18" style="enable-background:new 0 0 18 18;" xml:space="preserve">
<g id="compose">
	<rect style="opacity:0.25;fill:none;" width="18" height="18"/>
	<path d="M14.8,16.8H1.2V2.2h9.788l1.2-1.2H0v17h16V6.812l-1.2,1.2V16.8z M17.508,1.232l-0.74-0.74C16.44,0.164,16.01,0,15.58,0
		c-0.43,0-0.86,0.164-1.188,0.492L6.298,8.587L4,14l5.413-2.298l8.095-8.095C18.164,2.951,18.164,1.888,17.508,1.232z M16.659,2.759
		l-7.93,7.93l-2.464,1.046l1.046-2.464l7.93-7.93c0.122-0.122,0.265-0.14,0.339-0.14s0.217,0.018,0.339,0.14l0.74,0.74
		c0.122,0.122,0.14,0.265,0.14,0.339S16.782,2.636,16.659,2.759z"/>
</g>
</svg>
