<?xml version="1.0" encoding="iso-8859-1"?>
<!-- Generator: Adobe Illustrator 23.0.1, SVG Export Plug-In . SVG Version: 6.00 Build 0)  -->
<svg version="1.1" id="contactless-layer" xmlns="http://www.w3.org/2000/svg" xmlns:xlink="http://www.w3.org/1999/xlink" x="0px"
	 y="0px" viewBox="0 0 18 18" style="enable-background:new 0 0 18 18;" xml:space="preserve">
<g id="contactless">
	<path d="M4.838,9.838l0.849,0.849C6.531,9.828,7.703,9.292,9,9.292s2.469,0.536,3.313,1.395l0.849-0.849
		C12.101,8.762,10.627,8.093,9,8.093S5.899,8.762,4.838,9.838z M9,5.343c-2.386,0-4.546,0.978-6.106,2.552l0.848,0.848
		c1.342-1.357,3.203-2.2,5.258-2.2s3.916,0.843,5.258,2.2l0.848-0.848C13.546,6.32,11.386,5.343,9,5.343z M6.783,11.783l0.848,0.848
		C7.977,12.27,8.461,12.042,9,12.042s1.023,0.228,1.369,0.589l0.848-0.848c-0.563-0.578-1.348-0.94-2.217-0.94
		S7.346,11.205,6.783,11.783z M9,0C4.03,0,0,4.029,0,9s4.03,9,9,9s9-4.029,9-9S13.97,0,9,0z M9,16.8c-4.301,0-7.8-3.499-7.8-7.8
		S4.699,1.2,9,1.2s7.8,3.499,7.8,7.8S13.301,16.8,9,16.8z"/>
	<rect y="0" style="fill:none;" width="18" height="18"/>
</g>
</svg>
