<?xml version="1.0" encoding="iso-8859-1"?>
<!-- Generator: Adobe Illustrator 23.0.1, SVG Export Plug-In . SVG Version: 6.00 Build 0)  -->
<svg version="1.1" id="contact_x5F_phone-layer" xmlns="http://www.w3.org/2000/svg" xmlns:xlink="http://www.w3.org/1999/xlink"
	 x="0px" y="0px" viewBox="0 0 18 18" style="enable-background:new 0 0 18 18;" xml:space="preserve">
<g id="contact_x5F_phone">
	<rect style="opacity:0.25;fill:none;" width="18" height="18"/>
	<path d="M13.636,17.999c-0.417,0-0.837-0.092-1.23-0.28c-3.923-1.88-6.856-5.046-6.979-5.18c-0.098-0.087-3.265-3.021-5.145-6.944
		c-0.519-1.082-0.303-2.372,0.535-3.21L2.81,0.391c0.504-0.504,1.382-0.504,1.885,0L7.42,3.116c0.519,0.52,0.519,1.365,0,1.884
		L5.938,6.482C5.892,6.528,5.884,6.602,5.92,6.649c0.56,0.726,1.175,1.425,1.827,2.078l1.525,1.525
		c0.649,0.648,1.348,1.264,2.078,1.826c0.047,0.037,0.121,0.028,0.167-0.017L13,10.58c0.502-0.502,1.381-0.503,1.884,0.001
		l2.726,2.726C17.862,13.559,18,13.893,18,14.25c0,0.355-0.139,0.689-0.391,0.94l-1.993,1.993
		C15.082,17.718,14.365,17.999,13.636,17.999z M3.752,1.205c-0.036,0-0.072,0.012-0.094,0.033L1.665,3.232
		c-0.479,0.479-0.6,1.221-0.301,1.845c1.781,3.717,4.879,6.585,4.91,6.613c0.064,0.067,2.941,3.169,6.65,4.946
		c0.623,0.299,1.365,0.177,1.843-0.301l2.033-2.088c0-0.024-0.007-0.062-0.039-0.094l-2.726-2.726c-0.064-0.064-0.123-0.064-0.186,0
		l-1.482,1.482c-0.472,0.472-1.223,0.523-1.749,0.118c-0.771-0.594-1.509-1.243-2.194-1.929L6.899,9.575
		C6.21,8.887,5.562,8.148,4.97,7.382C4.566,6.857,4.617,6.105,5.089,5.634l1.482-1.482c0.052-0.051,0.052-0.136,0-0.188L3.845,1.238
		C3.823,1.217,3.788,1.205,3.752,1.205z"/>
</g>
</svg>
