<?xml version="1.0" encoding="iso-8859-1"?>
<!-- Generator: Adobe Illustrator 23.0.1, SVG Export Plug-In . SVG Version: 6.00 Build 0)  -->
<svg version="1.1" id="contact_x5F_address_x5F_book-layer"
	 xmlns="http://www.w3.org/2000/svg" xmlns:xlink="http://www.w3.org/1999/xlink" x="0px" y="0px" viewBox="0 0 18 18"
	 style="enable-background:new 0 0 18 18;" xml:space="preserve">
<g id="contact_x5F_address_x5F_book">
	<rect y="0" style="opacity:0.25;fill:none;" width="18" height="18"/>
	<path d="M15,0H1v4H0v1.2h1v3.2H0v1.2h1v3.2H0V14h1v4h14c1.104,0,2-0.895,2-2V2C17,0.895,16.104,0,15,0z M15.8,16
		c0,0.441-0.359,0.8-0.8,0.8H2.2V14H3v-1.2H2.2V9.6H3V8.4H2.2V5.2H3V4H2.2V1.2H15c0.441,0,0.8,0.359,0.8,0.8V16z M11.82,10.424
		c-0.389-0.401-0.875-0.704-1.45-0.89l-1.366,1.366L7.636,9.531c-0.577,0.186-1.066,0.49-1.457,0.892
		c-0.163,0.168-0.288,0.37-0.376,0.588L5,13h8l-0.804-1.989C12.108,10.794,11.984,10.592,11.82,10.424z M9.004,8.764
		c1.089,0,1.551-1.021,1.551-1.937c0-0.951-0.454-1.841-1.551-1.841c-1.097,0-1.56,0.881-1.56,1.841
		C7.444,7.769,7.898,8.764,9.004,8.764z"/>
</g>
</svg>
