<?xml version="1.0" encoding="iso-8859-1"?>
<!-- Generator: Adobe Illustrator 23.0.1, SVG Export Plug-In . SVG Version: 6.00 Build 0)  -->
<svg version="1.1" id="contact_x5F_video-layer" xmlns="http://www.w3.org/2000/svg" xmlns:xlink="http://www.w3.org/1999/xlink"
	 x="0px" y="0px" viewBox="0 0 18 18" style="enable-background:new 0 0 18 18;" xml:space="preserve">
<g id="contact_x5F_video">
	<g style="opacity:0.25;">
		<rect y="0" style="fill:none;" width="18" height="18"/>
	</g>
	<path d="M18,15V0H0v15h8.4v1.8H4V18h10v-1.2H9.6V15H18z M1.2,13.8V1.2h15.6v12.6H1.2z M9.005,8.292
		c1.561,0,2.272-1.426,2.272-2.751c0-1.581-0.913-2.644-2.272-2.644c-1.365,0-2.282,1.062-2.282,2.644
		C6.723,6.91,7.428,8.292,9.005,8.292z M9.005,4.097c0.968,0,1.072,1.01,1.072,1.444c0,0.063-0.012,1.552-1.072,1.552
		c-1.03,0-1.082-1.293-1.082-1.552C7.923,5.106,8.028,4.097,9.005,4.097z M12.54,9.883c-0.504-0.519-1.124-0.9-1.843-1.134
		l-0.35-0.114L9.005,9.977L7.662,8.634L7.312,8.746C6.589,8.979,5.966,9.361,5.461,9.882C5.232,10.117,5.05,10.4,4.92,10.725
		L4.081,12.8h1.294l0.658-1.627c0.072-0.179,0.169-0.331,0.289-0.454c0.288-0.297,0.632-0.533,1.024-0.704l1.66,1.659l1.656-1.656
		c0.39,0.171,0.731,0.406,1.018,0.701c0.119,0.122,0.216,0.275,0.289,0.455l0.657,1.626h1.294l-0.838-2.074
		C12.95,10.401,12.769,10.117,12.54,9.883z"/>
</g>
</svg>
