<?xml version="1.0" encoding="iso-8859-1"?>
<!-- Generator: Adobe Illustrator 23.0.1, SVG Export Plug-In . SVG Version: 6.00 Build 0)  -->
<svg version="1.1" id="contact_x5F_live_x5F_chat-layer"
	 xmlns="http://www.w3.org/2000/svg" xmlns:xlink="http://www.w3.org/1999/xlink" x="0px" y="0px" viewBox="0 0 18 18"
	 style="enable-background:new 0 0 18 18;" xml:space="preserve">
<g id="contact_x5F_live_x5F_chat">
	<rect y="0" style="opacity:0.25;fill:none;" width="18" height="18"/>
	<g>
		<rect x="3" y="10.4" width="5" height="1.2"/>
		<path d="M9.176,5.8C8.761,5.256,8.584,4.483,8.584,3.769c0-0.603,0.145-2.569,2.007-2.569c1.849,0,1.993,1.967,1.993,2.569
			c0,0.486-0.11,1.122-0.384,1.663v1.791c1.072-0.711,1.584-2.111,1.584-3.453C13.784,1.479,12.531,0,10.591,0
			C8.643,0,7.384,1.479,7.384,3.769c0,0.707,0.134,1.414,0.404,2.031H9.176z"/>
		<path d="M16.31,10.844c-0.183-0.453-0.437-0.849-0.755-1.178c-0.529-0.544-1.166-0.992-1.893-1.331L13.286,8.16l-0.297,0.289
			c-0.24,0.234-0.508,0.413-0.789,0.566v1.322c0.469-0.178,0.908-0.419,1.301-0.739c0.451,0.249,0.851,0.552,1.192,0.903
			c0.21,0.216,0.38,0.482,0.504,0.791l1.014,2.508H12.2V15h5.79L16.31,10.844z"/>
		<path d="M0,18l3.009-3.008H11V7H0V18z M1.2,8.2h8.6v5.592H2.512L1.2,15.103V8.2z"/>
	</g>
</g>
</svg>
