<?xml version="1.0" encoding="iso-8859-1"?>
<!-- Generator: Adobe Illustrator 23.0.1, SVG Export Plug-In . SVG Version: 6.00 Build 0)  -->
<svg version="1.1" id="contact_x5F_virtual-layer" xmlns="http://www.w3.org/2000/svg" xmlns:xlink="http://www.w3.org/1999/xlink"
	 x="0px" y="0px" viewBox="0 0 18 18" style="enable-background:new 0 0 18 18;" xml:space="preserve">
<g id="contact_x5F_virtual">
	<rect y="0" style="opacity:0.25;fill:none;" width="18" height="18"/>
	<path d="M4.25,8.25C4.94,8.25,5.5,7.69,5.5,7S4.94,5.75,4.25,5.75S3,6.31,3,7S3.56,8.25,4.25,8.25z M13.75,8.25
		C14.44,8.25,15,7.69,15,7s-0.56-1.25-1.25-1.25S12.5,6.31,12.5,7S13.06,8.25,13.75,8.25z M9,8.25c0.69,0,1.25-0.56,1.25-1.25
		S9.69,5.75,9,5.75S7.75,6.31,7.75,7S8.31,8.25,9,8.25z M0,0v18l4-4h14V0H0z M16.8,12.8H4H3.503l-0.352,0.351L1.2,15.103V1.2h15.6
		V12.8z"/>
</g>
</svg>
