<?xml version="1.0" encoding="iso-8859-1"?>
<!-- Generator: Adobe Illustrator 23.0.1, SVG Export Plug-In . SVG Version: 6.00 Build 0)  -->
<svg version="1.1" id="dashboard-layer" xmlns="http://www.w3.org/2000/svg" xmlns:xlink="http://www.w3.org/1999/xlink" x="0px"
	 y="0px" viewBox="0 0 18 18" style="enable-background:new 0 0 18 18;" xml:space="preserve">
<g id="dashboard">
	<rect y="0" style="fill:none;" width="18" height="18"/>
	<path d="M9,0C4.03,0,0,4.029,0,9s4.03,9,9,9s9-4.029,9-9S13.97,0,9,0z M9,16.8c-4.099,0-7.461-3.18-7.77-7.2H3V8.4H1.23
		c0.13-1.7,0.804-3.247,1.853-4.469l1.25,1.25l0.849-0.848l-1.25-1.251C5.296,1.912,7.065,1.2,9,1.2s3.704,0.712,5.068,1.883
		l-1.25,1.251l0.849,0.848l1.25-1.25C15.965,5.153,16.639,6.7,16.77,8.4H15V9.6h1.77C16.461,13.62,13.099,16.8,9,16.8z M9.6,7.102V3
		H8.4v4.102C7.591,7.358,7,8.106,7,9c0,1.105,0.896,2,2,2s2-0.895,2-2C11,8.106,10.409,7.358,9.6,7.102z M9,9.8
		C8.559,9.8,8.2,9.441,8.2,9S8.559,8.2,9,8.2S9.8,8.559,9.8,9S9.441,9.8,9,9.8z"/>
</g>
</svg>
