<?xml version="1.0" encoding="iso-8859-1"?>
<!-- Generator: Adobe Illustrator 23.0.1, SVG Export Plug-In . SVG Version: 6.00 Build 0)  -->
<svg version="1.1" id="data_x5F_chart-layer" xmlns="http://www.w3.org/2000/svg" xmlns:xlink="http://www.w3.org/1999/xlink"
	 x="0px" y="0px" viewBox="0 0 18 18" style="enable-background:new 0 0 18 18;" xml:space="preserve">
<g id="data_x5F_chart">
	<rect y="0" style="opacity:0.25;fill:none;" width="18" height="18"/>
	<path d="M11,0v7h7C18,3.134,14.866,0,11,0z M12.2,1.325c2.237,0.472,4.003,2.238,4.475,4.475H12.2V1.325z M9,2H8
		c-4.418,0-8,3.582-8,8s3.582,8,8,8s8-3.582,8-8V9H9V2z M1.2,10c0-3.682,2.943-6.683,6.6-6.79v6.341l-4.915,4.915
		C1.839,13.27,1.2,11.71,1.2,10z M8,16.8c-1.608,0-3.086-0.564-4.251-1.501L8,11.049l4.251,4.25C11.086,16.236,9.608,16.8,8,16.8z
		 M14.79,10.2c-0.048,1.631-0.67,3.117-1.675,4.266L8.849,10.2H14.79z"/>
</g>
</svg>
