<svg id="device_all-layer" xmlns="http://www.w3.org/2000/svg" viewBox="0 0 18 18"><defs><style>.cls-1{fill:none;}</style></defs><title>device_all</title><polygon points="18 12 18 0 3 0 3 2.8 4.2 2.8 4.2 1.2 16.8 1.2 16.8 10.8 10.2 10.8 10.2 15 14 15 14 13.8 11.4 13.8 11.4 12 18 12"/><path d="M7,4H2A2,2,0,0,0,0,6V16a2,2,0,0,0,2,2H7a2,2,0,0,0,2-2V6A2,2,0,0,0,7,4Zm.8,12a.86.86,0,0,1-.8.8H2a.86.86,0,0,1-.8-.8V14.5H7.8Zm0-2.7H1.2V6A.86.86,0,0,1,2,5.2H7a.86.86,0,0,1,.8.8Z" transform="translate(0 0)"/><circle cx="4.5" cy="15.6" r="0.6"/><rect class="cls-1" width="18" height="18"/></svg>