<svg id="device_tablet-layer" data-name="device tablet-layer" xmlns="http://www.w3.org/2000/svg" viewBox="0 0 18 18"><defs><style>.cls-1{fill:none;}</style></defs><title>device_tablet</title><path d="M14.52,0h-11a2,2,0,0,0-2,2V16a2,2,0,0,0,2,2h11a2,2,0,0,0,2-2V2A2,2,0,0,0,14.52,0Zm.8,16a.81.81,0,0,1-.8.8h-11a.81.81,0,0,1-.8-.8V2a.81.81,0,0,1,.8-.8h11a.81.81,0,0,1,.8.8Z"/><rect x="2.53" y="2.8" width="13.11" height="1.2"/><circle cx="8.99" cy="15.32" r="0.78"/><rect x="2.3" y="12.75" width="13.34" height="1.2"/><rect class="cls-1" width="18" height="18"/></svg>