<?xml version="1.0" encoding="iso-8859-1"?>
<!-- Generator: Adobe Illustrator 23.0.1, SVG Export Plug-In . SVG Version: 6.00 Build 0)  -->
<svg version="1.1" id="dial-layer" xmlns="http://www.w3.org/2000/svg" xmlns:xlink="http://www.w3.org/1999/xlink" x="0px" y="0px"
	 viewBox="0 0 18 18" style="enable-background:new 0 0 18 18;" xml:space="preserve">
<g id="dial">
	<rect y="0" style="opacity:0.25;fill:none;" width="18" height="18"/>
	<path d="M16.5,0h-15C0.675,0,0,0.675,0,1.5v15C0,17.325,0.675,18,1.5,18h15c0.825,0,1.5-0.675,1.5-1.5v-15
		C18,0.675,17.325,0,16.5,0z M16.8,1.5v4.1h-4.4V1.2h4.1C16.663,1.2,16.8,1.337,16.8,1.5z M6.8,11.2V6.8h4.4v4.4H6.8z M11.2,12.4
		v4.4H6.8v-4.4H11.2z M5.6,11.2H1.2V6.8h4.4V11.2z M6.8,5.6V1.2h4.4v4.4H6.8z M12.4,6.8h4.4v4.4h-4.4V6.8z M1.5,1.2h4.1v4.4H1.2V1.5
		C1.2,1.337,1.337,1.2,1.5,1.2z M1.2,16.5v-4.1h4.4v4.4H1.5C1.337,16.8,1.2,16.663,1.2,16.5z M16.5,16.8h-4.1v-4.4h4.4v4.1
		C16.8,16.663,16.663,16.8,16.5,16.8z"/>
</g>
</svg>
