<?xml version="1.0" encoding="iso-8859-1"?>
<!-- Generator: Adobe Illustrator 23.0.1, SVG Export Plug-In . SVG Version: 6.00 Build 0)  -->
<svg version="1.1" id="dining-layer" xmlns="http://www.w3.org/2000/svg" xmlns:xlink="http://www.w3.org/1999/xlink" x="0px"
	 y="0px" viewBox="0 0 18 18" style="enable-background:new 0 0 18 18;" xml:space="preserve">
<g id="dining">
	<rect style="opacity:0.25;fill:none;" width="18" height="18"/>
	<path d="M4.408,5.862l0.821,0.875C6.292,5.74,6.386,4.104,5.441,3.093C4.929,2.54,4.995,1.699,5.593,1.138L4.771,0.263
		C3.696,1.272,3.603,2.874,4.562,3.91C5.059,4.44,4.99,5.316,4.408,5.862z M12.408,5.862l0.821,0.875
		c1.063-0.997,1.157-2.634,0.211-3.645c-0.512-0.553-0.446-1.394,0.152-1.955l-0.821-0.875c-1.076,1.01-1.168,2.611-0.209,3.647
		C13.059,4.44,12.99,5.316,12.408,5.862z M8.408,5.862l0.821,0.875c1.063-0.997,1.157-2.634,0.211-3.645
		C8.929,2.54,8.995,1.699,9.593,1.138L8.771,0.263C7.696,1.272,7.603,2.874,8.562,3.91C9.059,4.44,8.99,5.316,8.408,5.862z M0,8
		v1.001C0,13.971,4.029,18,9,18c4.971,0,9-4.029,9-8.999V8H0z M9,16.8c-4.234,0-7.691-3.391-7.797-7.6h15.595
		C16.691,13.409,13.234,16.8,9,16.8z"/>
</g>
</svg>
