<?xml version="1.0" encoding="iso-8859-1"?>
<!-- Generator: Adobe Illustrator 23.0.1, SVG Export Plug-In . SVG Version: 6.00 Build 0)  -->
<svg version="1.1" id="document_x5F_pdf-layer" xmlns="http://www.w3.org/2000/svg" xmlns:xlink="http://www.w3.org/1999/xlink"
	 x="0px" y="0px" viewBox="0 0 18 18" style="enable-background:new 0 0 18 18;" xml:space="preserve">
<g id="document_x5F_pdf">
	<rect y="0" style="opacity:0.25;fill:none;" width="18" height="18"/>
	<path d="M3.901,9.378H3.584v0.798h0.267c0.547,0,0.621-0.209,0.621-0.413C4.472,9.489,4.306,9.378,3.901,9.378z M13.2,0L13.2,0L3,0
		v5.8h1.2V1.2H12V5h3.8v11.8H4.2v-1.6H3V18h14V3.8L13.2,0z M13.2,3.8V1.697L15.303,3.8H13.2z M13,13.99V7.01
		C13,7.004,12.996,7,12.99,7H1.01C1.004,7,1,7.004,1,7.01v6.98C1,13.995,1.004,14,1.01,14h11.98C12.996,14,13,13.995,13,13.99z
		 M4.76,10.77l-0.001,0.001c-0.171,0.069-0.405,0.106-0.658,0.106H3.584v1.273H2.672V8.676h1.315c0.322,0,0.66,0.016,0.944,0.207
		c0.302,0.205,0.461,0.521,0.461,0.912C5.393,10.239,5.156,10.604,4.76,10.77z M6.813,12.151H5.685V8.676h1.238
		c1.275,0,1.922,0.579,1.922,1.722C8.844,11.952,7.759,12.151,6.813,12.151z M11.58,9.383h-1.463v0.675h1.377v0.702h-1.377v1.392
		H9.218V8.676h2.362V9.383z M6.859,9.378H6.596v2.071h0.235c0.759,0,1.083-0.312,1.083-1.043S7.609,9.378,6.859,9.378z"/>
</g>
</svg>
