<?xml version="1.0" encoding="iso-8859-1"?>
<!-- Generator: Adobe Illustrator 23.0.1, SVG Export Plug-In . SVG Version: 6.00 Build 0)  -->
<svg version="1.1" id="document_x5F_confidential-layer"
	 xmlns="http://www.w3.org/2000/svg" xmlns:xlink="http://www.w3.org/1999/xlink" x="0px" y="0px" viewBox="0 0 18 18"
	 style="enable-background:new 0 0 18 18;" xml:space="preserve">
<g id="document_x5F_confidential">
	<rect y="0" style="fill:none;" width="18" height="18"/>
	<path d="M14.2,0L14.2,0H4v4.934C4.322,4.855,4.654,4.8,5,4.8c0.068,0,0.132,0.016,0.2,0.02V1.2H13V5h3.8v9.8h-5.6V16H18V3.8L14.2,0
		z M14.2,3.8V1.697L16.303,3.8H14.2z M8.8,10H8V9c0-1.65-1.35-3-3-3S2,7.35,2,9v1H1.2C0.54,10,0,10.54,0,11.2v5.6
		C0,17.46,0.54,18,1.2,18h7.6c0.66,0,1.2-0.54,1.2-1.2v-5.6C10,10.54,9.46,10,8.8,10z M3.2,9c0-0.992,0.808-1.8,1.8-1.8
		S6.8,8.008,6.8,9v1H3.2V9z M8.8,16.8H1.2v-5.6h7.6V16.8z M5.6,13H4.4v2h1.2V13z"/>
</g>
</svg>
