<?xml version="1.0" encoding="iso-8859-1"?>
<!-- Generator: Adobe Illustrator 23.0.1, SVG Export Plug-In . SVG Version: 6.00 Build 0)  -->
<svg version="1.1" id="dollar_x5F_bill-layer" xmlns="http://www.w3.org/2000/svg" xmlns:xlink="http://www.w3.org/1999/xlink"
	 x="0px" y="0px" viewBox="0 0 18 18" style="enable-background:new 0 0 18 18;" xml:space="preserve">
<g id="dollar_x5F_bill">
	<rect style="fill:none;" width="18" height="18"/>
	<path d="M0,2.5v13h18v-13H0z M1.249,3.749H8.4v1.467C7.207,5.431,6.44,6.226,6.44,7.337c0,1.494,1.342,1.91,2.059,2.133
		l0.637,0.203l0.004,0.002c0.957,0.297,1.219,0.51,1.219,0.988c0,0.914-1.089,0.985-1.423,0.985c-1.283,0-1.292-0.651-1.295-0.866
		L6.44,10.8c0.016,1.108,0.753,1.847,1.959,2.012v1.439H1.249V3.749z M16.751,14.251H9.6v-1.467c1.193-0.215,1.959-1.01,1.959-2.121
		c0-1.494-1.342-1.91-2.063-2.135l0,0L8.859,8.325c-0.957-0.297-1.219-0.51-1.219-0.988c0-0.914,1.089-0.985,1.423-0.985
		c1.283,0,1.292,0.651,1.295,0.866l1.2-0.018C11.544,6.092,10.807,5.354,9.6,5.188V3.749h7.151V14.251z"/>
</g>
</svg>
