<?xml version="1.0" encoding="iso-8859-1"?>
<!-- Generator: Adobe Illustrator 23.0.1, SVG Export Plug-In . SVG Version: 6.00 Build 0)  -->
<svg version="1.1" id="education_x5F_book-layer" xmlns="http://www.w3.org/2000/svg" xmlns:xlink="http://www.w3.org/1999/xlink"
	 x="0px" y="0px" viewBox="0 0 18 18" style="enable-background:new 0 0 18 18;" xml:space="preserve">
<g id="education_x5F_book">
	<rect style="fill:none;" width="18" height="18"/>
	<path d="M11.647,0.29C10.542,0.29,9.569,0.854,9,1.71C8.431,0.854,7.458,0.29,6.353,0.29H0v16h6.353
		c1.105,0,2.078,0.565,2.647,1.421c0.569-0.856,1.542-1.421,2.647-1.421H18v-16H11.647z M1.2,15.09V1.49h5.153
		c0.663,0,1.279,0.331,1.648,0.885L8.4,2.975v12.622c-0.621-0.329-1.321-0.508-2.047-0.508H1.2z M16.8,15.09h-5.153
		c-0.726,0-1.426,0.179-2.047,0.508V2.975l0.399-0.601c0.368-0.554,0.984-0.885,1.648-0.885H16.8V15.09z"/>
	<g style="opacity:0.25;">
		<rect style="fill:none;" width="18" height="18"/>
	</g>
</g>
</svg>
