<?xml version="1.0" encoding="utf-8"?>
<!-- Generator: Adobe Illustrator 19.0.0, SVG Export Plug-In . SVG Version: 6.00 Build 0)  -->
<svg version="1.1" id="Layer_email" xmlns="http://www.w3.org/2000/svg" xmlns:xlink="http://www.w3.org/1999/xlink" x="0px" y="0px"
	 viewBox="0 0 128 128" style="enable-background:new 0 0 128 128;" xml:space="preserve">
<style type="text/css">
	*:hover {
        cursor: pointer;
    }
	.st0{fill:#929292;}
	.st1{fill:#FFFFFF;}
</style>
<path id="XMLID_13_" class="st0" d="M63.9,128L63.9,128c-35.3,0-64-28.7-64-64v0c0-35.3,28.7-64,64-64h0c35.3,0,64,28.7,64,64v0
	C127.9,99.3,99.2,128,63.9,128z"/>
<g id="Messages">
	<path id="XMLID_2_" class="st1" d="M63.9,73.8l32-30.7v43.8c0,0.6,0,1.1,0,1.1h-64c0,0,0-0.5,0-1.1V43.1L63.9,73.8z M35.6,40h56.5
		L63.9,67.1L35.6,40z"/>
</g>
<g id="Accounts">
</g>
</svg>
