<?xml version="1.0" encoding="utf-8"?>
<!-- Generator: Adobe Illustrator 17.1.0, SVG Export Plug-In . SVG Version: 6.00 Build 0)  -->
<!DOCTYPE svg PUBLIC "-//W3C//DTD SVG 1.1//EN" "http://www.w3.org/Graphics/SVG/1.1/DTD/svg11.dtd">
<svg version="1.1"
	 id="canada" xmlns:cc="http://creativecommons.org/ns#" xmlns:dc="http://purl.org/dc/elements/1.1/" xmlns:rdf="http://www.w3.org/1999/02/22-rdf-syntax-ns#"
	 xmlns="http://www.w3.org/2000/svg" xmlns:xlink="http://www.w3.org/1999/xlink" x="0px" y="0px" viewBox="0 0 640 480"
	 enable-background="new 0 0 640 480" xml:space="preserve">
<g>
	<g>
		<rect y="0" fill="#034EA2" width="640" height="480"/>
		<path fill="#034EA2" d="M320,240"/>
	</g>
	<g>
		<polygon fill="#FFF100" points="304.7,104.6 319.9,93.5 335,104.6 329.3,86.7 344.7,75.6 325.7,75.6 319.9,57.4 314,75.6 
			295,75.6 310.4,86.7 		"/>
		<polygon fill="#FFF100" points="226,125.7 241.2,114.6 256.4,125.7 250.6,107.8 266.1,96.7 247,96.7 241.2,78.5 235.4,96.7 
			216.4,96.7 231.8,107.8 		"/>
		<polygon fill="#FFF100" points="183.7,136.2 177.9,154.4 158.9,154.3 174.3,165.4 168.5,183.4 183.7,172.3 198.9,183.4 
			193.1,165.4 208.5,154.3 189.5,154.3 		"/>
		<polygon fill="#FFF100" points="162.6,250.8 177.8,261.9 172,244 187.4,232.9 168.4,232.9 162.6,214.7 156.8,232.9 137.8,232.9 
			153.2,244 147.4,261.9 		"/>
		<polygon fill="#FFF100" points="189.5,311.6 183.7,293.5 177.9,311.6 158.9,311.6 174.3,322.7 168.5,340.6 183.7,329.5 
			198.9,340.6 193.1,322.7 208.5,311.6 		"/>
		<polygon fill="#FFF100" points="247.2,369.3 241.3,351.1 235.5,369.3 216.5,369.3 231.9,380.4 226.2,398.3 241.3,387.2 
			256.5,398.3 250.8,380.4 266.2,369.3 		"/>
		<polygon fill="#FFF100" points="325.7,390.2 319.9,372 314,390.2 295,390.2 310.4,401.2 304.7,419.2 319.9,408.1 335.1,419.2 
			329.3,401.2 344.7,390.2 		"/>
		<polygon fill="#FFF100" points="404.2,369.3 398.4,351.1 392.6,369.3 373.6,369.3 389,380.4 383.2,398.3 398.4,387.2 413.6,398.3 
			407.8,380.4 423.2,369.3 		"/>
		<polygon fill="#FFF100" points="461.9,311.6 456,293.5 450.2,311.6 431.2,311.6 446.6,322.7 440.8,340.6 456,329.5 471.2,340.6 
			465.4,322.7 480.9,311.6 		"/>
		<polygon fill="#FFF100" points="501.7,232.7 482.7,232.7 476.9,214.5 471.1,232.7 452.1,232.7 467.5,243.7 461.7,261.7 
			476.9,250.6 492.1,261.7 486.3,243.7 		"/>
		<polygon fill="#FFF100" points="440.8,183.1 456,172 471.2,183.1 465.4,165.2 480.9,154.1 461.9,154.1 456,136 450.2,154.1 
			431.2,154.1 446.6,165.2 		"/>
		<polygon fill="#FFF100" points="398.6,78.5 392.8,96.7 373.8,96.7 389.2,107.8 383.4,125.7 398.6,114.6 413.8,125.7 408,107.8 
			423.5,96.7 404.4,96.7 		"/>
	</g>
</g>
</svg>
