<?xml version="1.0" encoding="iso-8859-1"?>
<!-- Generator: Adobe Illustrator 23.0.1, SVG Export Plug-In . SVG Version: 6.00 Build 0)  -->
<svg version="1.1" id="expand-layer" xmlns="http://www.w3.org/2000/svg" xmlns:xlink="http://www.w3.org/1999/xlink" x="0px"
	 y="0px" viewBox="0 0 18 18" style="enable-background:new 0 0 18 18;" xml:space="preserve">
<g id="expand">
	<g style="opacity:0.25;">
		<rect style="fill:none;" width="18" height="18"/>
	</g>
	<path d="M7.139,11.709l-0.848-0.848L2.2,14.952V10.8L1,12v5h5l1.2-1.2H3.048L7.139,11.709z M15.8,14.952l-4.091-4.09l-0.848,0.848
		l4.091,4.09H10.8L12,17h5v-5l-1.2-1.2V14.952z M12,1l-1.2,1.2h4.152l-4.09,4.09l0.848,0.848l4.09-4.09V7.2L17,6V1H12z M1,1v5
		l1.2,1.2V3.048l4.091,4.09L7.139,6.29L3.048,2.2H7.2L6,1H1z"/>
</g>
</svg>
