<?xml version="1.0" encoding="iso-8859-1"?>
<!-- Generator: Adobe Illustrator 23.0.1, SVG Export Plug-In . SVG Version: 6.00 Build 0)  -->
<svg version="1.1" id="fast_x5F_track-layer" xmlns="http://www.w3.org/2000/svg" xmlns:xlink="http://www.w3.org/1999/xlink"
	 x="0px" y="0px" viewBox="0 0 18 18" style="enable-background:new 0 0 18 18;" xml:space="preserve">
<g id="fast_x5F_track">
	<rect style="opacity:0.25;fill:none;" width="18" height="18"/>
	<path d="M9,0C4.029,0,0,4.03,0,9s4.029,9,9,9s9-4.03,9-9S13.971,0,9,0z M9,16.8c-4.301,0-7.8-3.499-7.8-7.8
		c0-4.301,3.499-7.8,7.8-7.8s7.8,3.499,7.8,7.8C16.8,13.301,13.301,16.8,9,16.8z M6.193,5H4.496l4,4l-4,4h1.697l4-4L6.193,5z
		 M10.612,5H8.916l4,4l-4,4h1.697l4.001-4L10.612,5z"/>
</g>
</svg>
