<?xml version="1.0" encoding="iso-8859-1"?>
<!-- Generator: Adobe Illustrator 23.0.1, SVG Export Plug-In . SVG Version: 6.00 Build 0)  -->
<svg version="1.1" id="favourite_x5F_star-layer" xmlns="http://www.w3.org/2000/svg" xmlns:xlink="http://www.w3.org/1999/xlink"
	 x="0px" y="0px" viewBox="0 0 18 18" style="enable-background:new 0 0 18 18;" xml:space="preserve">
<g id="favourite_x5F_star">
	<rect x="0" style="opacity:0.4;fill:none;" width="18" height="18"/>
	<path d="M9,4.299l1.035,3.083L10.31,8.2h0.863h3.241l-2.62,1.974l-0.677,0.51l0.254,0.808l0.975,3.103l-2.65-1.886L9,12.214
		l-0.696,0.495l-2.65,1.886l0.975-3.103l0.254-0.808l-0.677-0.51L3.587,8.2h3.241H7.69l0.275-0.818L9,4.299 M9,0.528L6.827,7H0
		l5.485,4.133l-2.047,6.513L9,13.687l5.562,3.959l-2.047-6.513L18,7h-6.827L9,0.528L9,0.528z"/>
</g>
</svg>
