<?xml version="1.0" encoding="iso-8859-1"?>
<!-- Generator: Adobe Illustrator 23.0.1, SVG Export Plug-In . SVG Version: 6.00 Build 0)  -->
<svg version="1.1" id="favourite_x5F_pin-layer" xmlns="http://www.w3.org/2000/svg" xmlns:xlink="http://www.w3.org/1999/xlink"
	 x="0px" y="0px" viewBox="0 0 18 18" style="enable-background:new 0 0 18 18;" xml:space="preserve">
<g id="favourite_x5F_pin">
	<rect style="opacity:0.25;fill:none;" width="18" height="18"/>
	<path d="M17.561,4.409l-3.97-3.97C13.298,0.146,12.914,0,12.53,0s-0.768,0.146-1.061,0.439L6.909,5H0l6.076,6.076L0.211,16.94
		c-0.234,0.233-0.234,0.614,0,0.848c0.117,0.117,0.271,0.176,0.424,0.176s0.307-0.059,0.424-0.176l5.864-5.864L13,18v-6.909
		l4.561-4.561C18.146,5.945,18.146,4.995,17.561,4.409z M16.712,5.682L11.8,10.594v4.509L2.897,6.2h4.509l4.912-4.912
		C12.391,1.215,12.473,1.2,12.53,1.2s0.14,0.015,0.212,0.088l3.97,3.97C16.785,5.331,16.8,5.413,16.8,5.47
		S16.785,5.609,16.712,5.682z"/>
</g>
</svg>
