<?xml version="1.0" encoding="iso-8859-1"?>
<!-- Generator: Adobe Illustrator 23.0.1, SVG Export Plug-In . SVG Version: 6.00 Build 0)  -->
<svg version="1.1" id="file_x5F_attachment-layer" xmlns="http://www.w3.org/2000/svg" xmlns:xlink="http://www.w3.org/1999/xlink"
	 x="0px" y="0px" viewBox="0 0 18 18" style="enable-background:new 0 0 18 18;" xml:space="preserve">
<g id="file_x5F_attachment">
	<rect y="0" style="opacity:0.25;fill:none;" width="18" height="18"/>
	<path d="M12.2,0L12.2,0H2v8.703l1.2-1.2V1.2H11V5h3.8v11.8H8.491l-1.2,1.2H16V3.8L12.2,0z M12.2,3.8V1.697L14.303,3.8H12.2z
		 M12.026,7.534c-1.11-1.108-2.918-1.108-4.03,0v0.001l-5.222,5.223c-0.682,0.682-0.682,1.792,0,2.474
		c0.341,0.342,0.79,0.512,1.237,0.512c0.448,0,0.896-0.17,1.238-0.512l4.42-4.42L8.82,9.964l-4.42,4.42
		c-0.214,0.213-0.562,0.214-0.778,0c-0.214-0.215-0.214-0.563,0-0.778l5.222-5.222l0,0c0.643-0.645,1.69-0.644,2.333-0.001
		c0.643,0.644,0.643,1.691,0,2.335l-5.277,5.276c-1.074,1.072-2.821,1.072-3.895,0c-1.074-1.074-1.074-2.822,0-3.896L6.535,7.57
		L5.686,6.723L1.158,11.25c-1.542,1.541-1.542,4.05,0,5.592c0.771,0.771,1.783,1.156,2.796,1.156s2.025-0.385,2.796-1.156
		l5.277-5.276C13.138,10.454,13.138,8.646,12.026,7.534z"/>
</g>
</svg>
