<?xml version="1.0" encoding="iso-8859-1"?>
<!-- Generator: Adobe Illustrator 23.0.1, SVG Export Plug-In . SVG Version: 6.00 Build 0)  -->
<svg version="1.1" id="filter-layer" xmlns="http://www.w3.org/2000/svg" xmlns:xlink="http://www.w3.org/1999/xlink" x="0px"
	 y="0px" viewBox="0 0 18 18" style="enable-background:new 0 0 18 18;" xml:space="preserve">
<g id="filter">
	<rect style="opacity:0.25;fill:none;" width="18" height="18"/>
	<path d="M5.23,12.9c-1.173,0-2.15,0.811-2.42,1.9H0V16h2.81c0.27,1.089,1.247,1.9,2.42,1.9c1.173,0,2.15-0.811,2.419-1.9H18v-1.2
		H7.649C7.38,13.711,6.403,12.9,5.23,12.9z M5.23,16.7c-0.717,0-1.3-0.583-1.3-1.3s0.583-1.3,1.3-1.3c0.717,0,1.3,0.583,1.3,1.3
		S5.947,16.7,5.23,16.7z M12.77,6.9c-1.173,0-2.15,0.811-2.419,1.9H0V10h10.351c0.27,1.089,1.247,1.9,2.419,1.9
		c1.173,0,2.15-0.811,2.42-1.9H18V8.8h-2.81C14.92,7.711,13.943,6.9,12.77,6.9z M12.77,10.7c-0.717,0-1.3-0.583-1.3-1.3
		s0.583-1.3,1.3-1.3c0.717,0,1.3,0.583,1.3,1.3S13.487,10.7,12.77,10.7z M7.649,2.8C7.38,1.711,6.403,0.9,5.23,0.9
		c-1.173,0-2.15,0.811-2.42,1.9H0V4h2.81c0.27,1.089,1.247,1.9,2.42,1.9c1.173,0,2.15-0.811,2.419-1.9H18V2.8H7.649z M5.23,4.7
		c-0.717,0-1.3-0.583-1.3-1.3s0.583-1.3,1.3-1.3c0.717,0,1.3,0.583,1.3,1.3S5.947,4.7,5.23,4.7z"/>
</g>
</svg>
