<?xml version="1.0" encoding="iso-8859-1"?>
<!-- Generator: Adobe Illustrator 23.0.1, SVG Export Plug-In . SVG Version: 6.00 Build 0)  -->
<svg version="1.1" id="global-layer" xmlns="http://www.w3.org/2000/svg" xmlns:xlink="http://www.w3.org/1999/xlink" x="0px"
	 y="0px" viewBox="0 0 18 18" style="enable-background:new 0 0 18 18;" xml:space="preserve">
<g id="global">
	<rect style="opacity:0.25;fill:none;" width="18" height="18"/>
	<path d="M9,0C4.029,0,0,4.029,0,9s4.029,9,9,9s9-4.029,9-9S13.971,0,9,0z M6.851,1.508C5.244,3.055,4.166,5.546,4.03,8.4h-2.8
		C1.482,5.111,3.778,2.391,6.851,1.508z M1.23,9.6h2.8c0.136,2.854,1.214,5.345,2.821,6.892C3.778,15.609,1.482,12.889,1.23,9.6z
		 M8.4,16.221C6.637,15.044,5.387,12.549,5.234,9.6H8.4V16.221z M8.4,8.4H5.234C5.387,5.451,6.637,2.956,8.4,1.779V8.4z M16.77,8.4
		h-2.8c-0.135-2.848-1.208-5.334-2.809-6.882C14.225,2.404,16.518,5.116,16.77,8.4z M9.6,16.221V9.6h3.166
		C12.613,12.549,11.363,15.044,9.6,16.221z M9.6,8.4V1.779c1.763,1.177,3.013,3.672,3.166,6.622H9.6z M11.161,16.482
		c1.601-1.548,2.674-4.034,2.809-6.882h2.8C16.518,12.884,14.225,15.596,11.161,16.482z"/>
</g>
</svg>
