<?xml version="1.0" encoding="iso-8859-1"?>
<!-- Generator: Adobe Illustrator 23.0.1, SVG Export Plug-In . SVG Version: 6.00 Build 0)  -->
<svg version="1.1" id="goals-layer" xmlns="http://www.w3.org/2000/svg" xmlns:xlink="http://www.w3.org/1999/xlink" x="0px"
	 y="0px" viewBox="0 0 18 18" style="enable-background:new 0 0 18 18;" xml:space="preserve">
<g id="goals">
	<path d="M9,0C4.029,0,0,4.029,0,9s4.029,9,9,9s9-4.029,9-9S13.971,0,9,0z M9,16.8c-4.301,0-7.8-3.499-7.8-7.8S4.699,1.2,9,1.2
		s7.8,3.499,7.8,7.8S13.301,16.8,9,16.8z M9,3C5.686,3,3,5.686,3,9s2.686,6,6,6s6-2.686,6-6S12.314,3,9,3z M9,13.8
		c-2.647,0-4.8-2.153-4.8-4.8S6.353,4.2,9,4.2s4.8,2.153,4.8,4.8S11.647,13.8,9,13.8z M9,6C7.343,6,6,7.343,6,9s1.343,3,3,3
		s3-1.343,3-3S10.657,6,9,6z M9,10.8c-0.993,0-1.8-0.807-1.8-1.8S8.007,7.2,9,7.2s1.8,0.807,1.8,1.8S9.993,10.8,9,10.8z"/>
	<rect y="0" style="fill:none;" width="18" height="18"/>
</g>
</svg>
