<?xml version="1.0" encoding="utf-8"?>
<!-- Generator: Adobe Illustrator 19.0.0, SVG Export Plug-In . SVG Version: 6.00 Build 0)  -->
<svg version="1.1" id="Layer_googleplus" xmlns="http://www.w3.org/2000/svg" xmlns:xlink="http://www.w3.org/1999/xlink" x="0px" y="0px"
	 viewBox="0 0 128 128" style="enable-background:new 0 0 128 128;" xml:space="preserve">
<style type="text/css">
	.st0{fill:#DC4E41;}
	.st1{fill:#FFFFFF;}
</style>
<g id="XMLID_1_">
	<g id="XMLID_2_">
		<g id="XMLID_3_">
			<path id="XMLID_4_" class="st0" d="M64,128L64,128C28.7,128,0,99.3,0,64v0C0,28.7,28.7,0,64,0h0c35.3,0,64,28.7,64,64v0
				C128,99.3,99.3,128,64,128z"/>
		</g>
	</g>
	<path class="st1" d="M95.6,61.1h-5.7v-5.7h-5.7v5.7h-5.7v5.7h5.7v5.7h5.7v-5.7h5.7 M52.5,61.1V68H64c-0.6,2.9-3.4,8.6-11.5,8.6
		c-6.9,0-12.4-5.7-12.4-12.6s5.5-12.6,12.4-12.6c4,0,6.6,1.7,8,3.2l5.5-5.2c-3.4-3.4-8-5.5-13.5-5.5c-11.2,0-20.1,8.9-20.1,20.1
		s8.9,20.1,20.1,20.1c11.5,0,19.2-8,19.2-19.5c0-1.4,0-2.3-0.3-3.4H52.5z"/>
</g>
</svg>
