<?xml version="1.0" encoding="iso-8859-1"?>
<!-- Generator: Adobe Illustrator 23.0.1, SVG Export Plug-In . SVG Version: 6.00 Build 0)  -->
<svg version="1.1" id="health-layer" xmlns="http://www.w3.org/2000/svg" xmlns:xlink="http://www.w3.org/1999/xlink" x="0px"
	 y="0px" viewBox="0 0 18 18" style="enable-background:new 0 0 18 18;" xml:space="preserve">
<g id="health">
	<rect x="0" style="opacity:0.25;fill:none;" width="18" height="18"/>
	<path d="M16.62,2.55c-0.92-0.92-2.125-1.379-3.33-1.379S10.879,1.63,9.96,2.55C9.544,2.965,9.228,3.44,9,3.946
		C8.772,3.44,8.456,2.965,8.04,2.55C7.121,1.63,5.915,1.17,4.71,1.17S2.299,1.63,1.38,2.55c-1.839,1.839-1.839,4.821,0,6.66L9,16.83
		l7.62-7.62C18.46,7.371,18.46,4.389,16.62,2.55z M15.772,8.361L9,15.133L2.228,8.361C1.565,7.698,1.2,6.817,1.2,5.88
		c0-0.938,0.365-1.819,1.028-2.482C2.891,2.735,3.772,2.37,4.71,2.37s1.819,0.365,2.482,1.028c0.296,0.296,0.536,0.646,0.714,1.04
		l0.468,1.038h1.253l0.468-1.038c0.178-0.394,0.418-0.744,0.714-1.041c0.663-0.663,1.544-1.028,2.482-1.028s1.819,0.365,2.482,1.028
		C16.435,4.061,16.8,4.942,16.8,5.88C16.8,6.817,16.435,7.698,15.772,8.361z M8.65,9.536L7.087,7.974L6.239,8.822l2.411,2.412
		l4.78-4.78l-0.849-0.848L8.65,9.536z"/>
</g>
</svg>
