<?xml version="1.0" encoding="iso-8859-1"?>
<!-- Generator: Adobe Illustrator 23.0.1, SVG Export Plug-In . SVG Version: 6.00 Build 0)  -->
<svg version="1.1" id="help_x5F_circle-layer" xmlns="http://www.w3.org/2000/svg" xmlns:xlink="http://www.w3.org/1999/xlink"
	 x="0px" y="0px" viewBox="0 0 18 18" style="enable-background:new 0 0 18 18;" xml:space="preserve">
<g id="help_x5F_circle_1_">
	<g>
		<g style="opacity:0.25;">
			<rect y="0" style="fill:none;" width="18" height="18"/>
		</g>
	</g>
	<path d="M9,0C4.029,0,0,4.03,0,9s4.029,9,9,9s9-4.03,9-9S13.971,0,9,0z M9,16.8c-4.301,0-7.8-3.499-7.8-7.8S4.699,1.2,9,1.2
		s7.8,3.499,7.8,7.8S13.301,16.8,9,16.8z M8.999,12.5c-0.552,0-1,0.448-1,1s0.448,1,1,1c0.552,0,1-0.448,1-1S9.552,12.5,8.999,12.5z
		 M9.604,3.539C8.75,3.363,7.875,3.569,7.207,4.113C6.54,4.656,6.157,5.46,6.157,6.319h1.2c0-0.496,0.221-0.961,0.607-1.275
		c0.392-0.318,0.887-0.437,1.396-0.33c0.636,0.133,1.154,0.677,1.26,1.323c0.089,0.538-0.078,1.064-0.458,1.443L9.013,8.629
		C8.75,8.894,8.4,9.324,8.4,10.011V11h1.2v-0.989c0-0.176,0.042-0.312,0.262-0.533L11.01,8.33c0.657-0.656,0.946-1.562,0.794-2.488
		C11.616,4.7,10.732,3.775,9.604,3.539z"/>
</g>
</svg>
