<?xml version="1.0" encoding="iso-8859-1"?>
<!-- Generator: Adobe Illustrator 23.0.1, SVG Export Plug-In . SVG Version: 6.00 Build 0)  -->
<svg version="1.1" id="insight-layer" xmlns="http://www.w3.org/2000/svg" xmlns:xlink="http://www.w3.org/1999/xlink" x="0px"
	 y="0px" viewBox="0 0 18 18" style="enable-background:new 0 0 18 18;" xml:space="preserve">
<g id="insight">
	<rect y="0" style="opacity:0.25;fill:none;" width="18" height="18"/>
	<path d="M15.168,3.436C13.834,1.284,11.528,0,9,0C6.47,0,4.163,1.286,2.83,3.44C2.146,4.545,2.034,5.934,2.528,7.156L5,13.266V16
		l2,2h4l2-2v-2.734l2.471-6.113C15.966,5.93,15.853,4.539,15.168,3.436z M11.8,15.503L10.503,16.8H7.497L6.2,15.503V13h5.6V15.503z
		 M9.8,11.8H8.2V6c0-0.441,0.359-0.8,0.8-0.8c0.441,0,0.8,0.359,0.8,0.8V11.8z M14.359,6.704l-2.06,5.096H11V6c0-1.104-0.895-2-2-2
		C7.895,4,7,4.895,7,6v5.8H5.701l-2.06-5.093C3.289,5.837,3.367,4.852,3.85,4.071C4.963,2.273,6.888,1.199,9,1.199
		c2.11,0,4.034,1.072,5.148,2.869C14.632,4.848,14.71,5.833,14.359,6.704z"/>
</g>
</svg>
