<?xml version="1.0" encoding="iso-8859-1"?>
<!-- Generator: Adobe Illustrator 23.0.1, SVG Export Plug-In . SVG Version: 6.00 Build 0)  -->
<svg version="1.1" id="insurance-layer" xmlns="http://www.w3.org/2000/svg" xmlns:xlink="http://www.w3.org/1999/xlink" x="0px"
	 y="0px" viewBox="0 0 18 18" style="enable-background:new 0 0 18 18;" xml:space="preserve">
<g id="insurance">
	<rect y="0" style="opacity:0.25;fill:none;" width="18" height="18"/>
	<path d="M15.276,2.549C13.587,0.905,11.358,0,9,0C6.642,0,4.413,0.905,2.724,2.549C1.04,4.189,0.072,6.385,0,8.734V10h0.362
		l0.695-0.859c0.484-0.57,1.188-0.896,1.933-0.896c0.936,0,1.793,0.514,2.237,1.341L5.45,10h0.54l0.251-0.346
		C6.762,8.938,7.544,8.474,8.4,8.317v7.22c0,0.691-0.562,1.254-1.253,1.254s-1.253-0.562-1.253-1.254V15h-1.2v0.537
		c0,1.353,1.101,2.453,2.453,2.453S9.6,16.89,9.6,15.537V8.316c0.858,0.154,1.642,0.617,2.165,1.332L12.023,10h0.526l0.228-0.422
		c0.445-0.823,1.3-1.334,2.233-1.334c0.744,0,1.449,0.327,1.932,0.896L17.638,10H18V8.734C17.928,6.385,16.96,4.189,15.276,2.549z
		 M2.99,7.044c-0.572,0-1.128,0.131-1.632,0.378C1.67,5.903,2.429,4.511,3.561,3.409C4.75,2.252,6.25,1.526,7.866,1.291
		C6.434,2.87,5.52,4.855,5.269,6.982C5.238,7.248,5.233,7.517,5.222,7.785C4.588,7.312,3.81,7.044,2.99,7.044z M9.005,7.044
		c-0.932,0-1.83,0.293-2.586,0.806c0.009-0.243,0.014-0.487,0.042-0.729c0.236-1.999,1.132-3.857,2.54-5.291
		c1.43,1.457,2.329,3.346,2.549,5.377c0.023,0.209,0.026,0.424,0.034,0.637C10.829,7.335,9.934,7.044,9.005,7.044z M15.01,7.044
		c-0.818,0-1.596,0.267-2.229,0.739c-0.01-0.236-0.013-0.473-0.038-0.704c-0.235-2.164-1.152-4.183-2.607-5.788
		c1.615,0.235,3.114,0.961,4.303,2.118c1.136,1.106,1.896,2.504,2.207,4.012C16.142,7.176,15.585,7.044,15.01,7.044z"/>
</g>
</svg>
