<?xml version="1.0" encoding="iso-8859-1"?>
<!-- Generator: Adobe Illustrator 23.0.1, SVG Export Plug-In . SVG Version: 6.00 Build 0)  -->
<svg version="1.1" id="intranet-layer" xmlns="http://www.w3.org/2000/svg" xmlns:xlink="http://www.w3.org/1999/xlink" x="0px"
	 y="0px" viewBox="0 0 18 18" style="enable-background:new 0 0 18 18;" xml:space="preserve">
<g id="intranet">
	<g style="opacity:0.25;">
		<rect style="fill:none;" width="18" height="18"/>
	</g>
	<path d="M16.5,1.5h-15C0.675,1.5,0,2.175,0,3v1.3v1.2V15c0,0.825,0.675,1.5,1.5,1.5h15c0.825,0,1.5-0.675,1.5-1.5V5.5V4.3V3
		C18,2.175,17.325,1.5,16.5,1.5z M5,15.3H1.5c-0.163,0-0.3-0.137-0.3-0.3V5.5H5V15.3z M16.8,15c0,0.163-0.137,0.3-0.3,0.3H6.2V5.5
		h10.6V15z M16.8,4.3H1.2V3c0-0.163,0.137-0.3,0.3-0.3h15c0.163,0,0.3,0.137,0.3,0.3V4.3z M12.031,13.621l1.649-0.826l-1-1.997
		l1.031-0.516L10,7.5v4.639l1.031-0.516L12.031,13.621z"/>
</g>
</svg>
