<?xml version="1.0" encoding="utf-8"?>
<!-- Generator: Adobe Illustrator 19.0.0, SVG Export Plug-In . SVG Version: 6.00 Build 0)  -->
<svg version="1.1" id="Layer_link" xmlns="http://www.w3.org/2000/svg" xmlns:xlink="http://www.w3.org/1999/xlink" x="0px" y="0px"
	 viewBox="0 0 128 128" style="enable-background:new 0 0 128 128;" xml:space="preserve">
<style type="text/css">
	.st0{fill:#929292;}
	.st1{fill:#FFFFFF;}
</style>
<path id="XMLID_13_" class="st0" d="M64,128L64,128C28.7,128,0,99.3,0,64v0C0,28.7,28.7,0,64,0h0c35.3,0,64,28.7,64,64v0
	C128,99.3,99.3,128,64,128z"/>
<g id="Link">
	<polygon id="XMLID_4_" class="st1" points="62.7,76.2 50.3,88.8 39.2,77.7 51.8,65.3 53.6,67.1 57.2,63.4 51.8,58 31.9,77.7 
		50.3,96.1 70,76.2 64.6,70.8 60.9,74.4 	"/>
	<polygon id="XMLID_3_" class="st1" points="65.3,51.8 77.7,39.2 88.8,50.3 76.2,62.7 74.4,60.9 70.8,64.6 76.2,70 96.1,50.3 
		77.7,31.9 58,51.8 63.4,57.2 67.1,53.6 	"/>
	
		<rect id="XMLID_2_" x="61.4" y="47.8" transform="matrix(-0.7071 -0.7071 0.7071 -0.7071 64.0361 154.6005)" class="st1" width="5.2" height="32.4"/>
</g>
</svg>
