<?xml version="1.0" encoding="utf-8"?>
<!-- Generator: Adobe Illustrator 19.0.0, SVG Export Plug-In . SVG Version: 6.00 Build 0)  -->
<svg version="1.1" id="Layer_linkedin" xmlns="http://www.w3.org/2000/svg" xmlns:xlink="http://www.w3.org/1999/xlink" x="0px" y="0px"
	 viewBox="0 0 128 128" style="enable-background:new 0 0 128 128;" xml:space="preserve">
<style type="text/css">
	*:hover {
		cursor: pointer;
	}
	.st0{fill:#247BB6;}
	.st1{fill:#FFFFFF;}
</style>
<g id="XMLID_1_">
	<g id="XMLID_2_">
		<path id="XMLID_4_" class="st0" d="M64,128L64,128C28.7,128,0,99.3,0,64v0C0,28.7,28.7,0,64,0h0c35.3,0,64,28.7,64,64v0
			C128,99.3,99.3,128,64,128z"/>
	</g>
	<g id="XMLID_3_">
		<path id="XMLID_5_" class="st1" d="M33.1,53.2h13.2v42.3H33.1V53.2z M39.7,32.2c4.2,0,7.6,3.4,7.6,7.6c0,4.2-3.4,7.6-7.6,7.6
			c-4.2,0-7.6-3.4-7.6-7.6C32.1,35.6,35.5,32.2,39.7,32.2"/>
		<path id="XMLID_8_" class="st1" d="M54.6,53.2h12.6V59h0.2c1.8-3.3,6.1-6.8,12.5-6.8c13.3,0,15.8,8.8,15.8,20.2v23.2H82.5V75
			c0-4.9-0.1-11.2-6.8-11.2c-6.9,0-7.9,5.3-7.9,10.9v20.9H54.6V53.2z"/>
	</g>
</g>
</svg>
