<?xml version="1.0" encoding="iso-8859-1"?>
<!-- Generator: Adobe Illustrator 23.0.1, SVG Export Plug-In . SVG Version: 6.00 Build 0)  -->
<svg version="1.1" id="link-layer" xmlns="http://www.w3.org/2000/svg" xmlns:xlink="http://www.w3.org/1999/xlink" x="0px" y="0px"
	 viewBox="0 0 18 18" style="enable-background:new 0 0 18 18;" xml:space="preserve">
<g id="link">
	<rect style="opacity:0.25;fill:none;" width="18" height="18"/>
	<path d="M9.864,12.834c-0.067,0.083-0.139,0.164-0.217,0.241l-2.836,2.836C6.239,16.484,5.476,16.8,4.665,16.8
		c-0.811,0-1.573-0.316-2.147-0.889l-0.428-0.428c-1.184-1.184-1.184-3.11,0-4.294l2.836-2.836c0.573-0.574,1.336-0.889,2.147-0.889
		s1.574,0.316,2.147,0.889l0.428,0.428c0.056,0.056,0.108,0.114,0.159,0.173c0.32,0.248,0.71,0.384,1.121,0.384
		c0.162,0,0.321-0.023,0.473-0.063c-0.206-0.487-0.507-0.944-0.905-1.342l-0.428-0.428C9.241,6.677,8.156,6.263,7.072,6.263
		S4.904,6.677,4.077,7.504l-2.836,2.836c-1.655,1.655-1.655,4.337,0,5.991l0.428,0.428C2.496,17.586,3.581,18,4.665,18
		s2.169-0.414,2.996-1.241l2.836-2.836c0.302-0.302,0.548-0.638,0.74-0.996c-0.102,0.006-0.205,0.009-0.308,0.009
		C10.567,12.937,10.211,12.902,9.864,12.834z M16.759,1.669l-0.428-0.428C15.504,0.414,14.419,0,13.335,0s-2.169,0.414-2.996,1.241
		L7.504,4.077c-0.302,0.302-0.548,0.638-0.74,0.996c0.102-0.006,0.205-0.009,0.308-0.009c0.361,0,0.717,0.035,1.063,0.103
		c0.067-0.083,0.139-0.164,0.217-0.241l2.836-2.836C11.761,1.516,12.524,1.2,13.335,1.2c0.811,0,1.573,0.316,2.147,0.889
		l0.428,0.428c1.184,1.184,1.184,3.111,0,4.294l-2.836,2.836c-0.573,0.573-1.336,0.889-2.147,0.889s-1.574-0.316-2.147-0.889
		L8.352,9.219C8.296,9.164,8.244,9.106,8.194,9.047c-0.32-0.248-0.71-0.384-1.121-0.384c-0.162,0-0.321,0.023-0.473,0.063
		c0.206,0.488,0.507,0.945,0.905,1.342l0.428,0.428c0.827,0.827,1.911,1.241,2.996,1.241s2.168-0.414,2.996-1.241l2.836-2.836
		C18.414,6.006,18.414,3.324,16.759,1.669z"/>
</g>
</svg>
