<?xml version="1.0" encoding="iso-8859-1"?>
<!-- Generator: Adobe Illustrator 23.0.1, SVG Export Plug-In . SVG Version: 6.00 Build 0)  -->
<svg version="1.1" id="location-layer" xmlns="http://www.w3.org/2000/svg" xmlns:xlink="http://www.w3.org/1999/xlink" x="0px"
	 y="0px" viewBox="0 0 18 18" style="enable-background:new 0 0 18 18;" xml:space="preserve">
<g id="location">
	<rect y="0" style="opacity:0.25;fill:none;" width="18" height="18"/>
	<path d="M14.232,2.184C12.788,0.728,10.894,0,9,0S5.212,0.728,3.767,2.184c-2.89,2.912-2.89,7.633,0,10.544L9,18l5.232-5.272
		C17.122,9.816,17.122,5.095,14.232,2.184z M13.381,11.883L9,16.297l-4.381-4.414c-2.423-2.441-2.423-6.413,0-8.854
		C5.79,1.849,7.345,1.2,9,1.2c1.654,0,3.21,0.649,4.381,1.829C15.803,5.47,15.803,9.442,13.381,11.883z M9,3.4
		c-2.261,0-4.1,1.839-4.1,4.1s1.839,4.1,4.1,4.1s4.1-1.839,4.1-4.1S11.261,3.4,9,3.4z M9,10.4c-1.599,0-2.9-1.302-2.9-2.9
		S7.401,4.6,9,4.6s2.9,1.302,2.9,2.9S10.599,10.4,9,10.4z"/>
</g>
</svg>
