<?xml version="1.0" encoding="iso-8859-1"?>
<!-- Generator: Adobe Illustrator 23.0.1, SVG Export Plug-In . SVG Version: 6.00 Build 0)  -->
<svg version="1.1" id="memo-layer" xmlns="http://www.w3.org/2000/svg" xmlns:xlink="http://www.w3.org/1999/xlink" x="0px" y="0px"
	 viewBox="0 0 18 18" style="enable-background:new 0 0 18 18;" xml:space="preserve">
<g id="memo">
	<rect y="0" style="fill:none;" width="18" height="18"/>
	<path d="M14.149,2C14.172,2.165,14.2,2.329,14.2,2.5c0,0.24-0.027,0.473-0.071,0.7H15.8V13H12v3.8H2.2V3.2h4.671
		C6.827,2.973,6.8,2.74,6.8,2.5c0-0.171,0.028-0.335,0.051-0.5H1v16h11v0h1.2v0l3.8-3.8V2H14.149z M13.2,16.303V14.2h2.103
		L13.2,16.303z M6.576,5.576l0.849,0.848l1.79-1.79C9.591,4.861,10.028,5,10.5,5C11.881,5,13,3.881,13,2.5S11.881,0,10.5,0
		S8,1.119,8,2.5c0,0.472,0.139,0.909,0.366,1.285L6.576,5.576z M10.5,1.2c0.717,0,1.3,0.583,1.3,1.3s-0.583,1.3-1.3,1.3
		S9.2,3.217,9.2,2.5S9.783,1.2,10.5,1.2z"/>
</g>
</svg>
