<?xml version="1.0" encoding="iso-8859-1"?>
<!-- Generator: Adobe Illustrator 23.0.1, SVG Export Plug-In . SVG Version: 6.00 Build 0)  -->
<svg version="1.1" id="menu_x5F_more_x5F_horizontal-layer"
	 xmlns="http://www.w3.org/2000/svg" xmlns:xlink="http://www.w3.org/1999/xlink" x="0px" y="0px" viewBox="0 0 18 18"
	 style="enable-background:new 0 0 18 18;" xml:space="preserve">
<g id="menu_x5F_more_x5F_horizontal">
	<rect style="opacity:0.25;fill:none;" width="18" height="18"/>
	<path d="M1.5,7.5C0.672,7.5,0,8.172,0,9s0.672,1.5,1.5,1.5S3,9.829,3,9S2.328,7.5,1.5,7.5z M16.5,7.5C15.672,7.5,15,8.172,15,9
		s0.672,1.5,1.5,1.5S18,9.829,18,9S17.328,7.5,16.5,7.5z M9,7.5C8.172,7.5,7.5,8.172,7.5,9s0.672,1.5,1.5,1.5s1.5-0.672,1.5-1.5
		S9.828,7.5,9,7.5z"/>
</g>
</svg>
