<?xml version="1.0" encoding="iso-8859-1"?>
<!-- Generator: Adobe Illustrator 23.0.1, SVG Export Plug-In . SVG Version: 6.00 Build 0)  -->
<svg version="1.1" id="menu_x5F_more_x5F_vertical-layer"
	 xmlns="http://www.w3.org/2000/svg" xmlns:xlink="http://www.w3.org/1999/xlink" x="0px" y="0px" viewBox="0 0 18 18"
	 style="enable-background:new 0 0 18 18;" xml:space="preserve">
<g id="menu_x5F_more_x5F_vertical">
	
		<rect y="0" transform="matrix(-1.836970e-16 1 -1 -1.836970e-16 18 1.091571e-11)" style="opacity:0.25;fill:none;" width="18" height="18"/>
	<path d="M9,3c0.828,0,1.5-0.672,1.5-1.5S9.828,0,9,0C8.171,0,7.5,0.672,7.5,1.5S8.171,3,9,3z M9,15c-0.829,0-1.5,0.672-1.5,1.5
		S8.171,18,9,18c0.828,0,1.5-0.672,1.5-1.5S9.828,15,9,15z M9,7.5C8.171,7.5,7.5,8.172,7.5,9s0.671,1.5,1.5,1.5
		c0.828,0,1.5-0.672,1.5-1.5S9.828,7.5,9,7.5z"/>
</g>
</svg>
