<?xml version="1.0" encoding="iso-8859-1"?>
<!-- Generator: Adobe Illustrator 23.0.1, SVG Export Plug-In . SVG Version: 6.00 Build 0)  -->
<svg version="1.1" id="online_x5F_banking-layer" xmlns="http://www.w3.org/2000/svg" xmlns:xlink="http://www.w3.org/1999/xlink"
	 x="0px" y="0px" viewBox="0 0 18 18" style="enable-background:new 0 0 18 18;" xml:space="preserve">
<g id="online_x5F_banking_1_">
	<rect style="opacity:0.25;fill:none;" width="18" height="18"/>
	<path d="M17,13.5v-11c0-1.105-0.896-2-2-2H3c-1.104,0-2,0.895-2,2v11H0v2c0,1.105,0.896,2,2,2h14c1.104,0,2-0.895,2-2v-2H17z
		 M2.2,2.5c0-0.441,0.359-0.8,0.8-0.8h12c0.441,0,0.8,0.359,0.8,0.8v11H2.2V2.5z M16.8,15.5c0,0.441-0.359,0.8-0.8,0.8H2
		c-0.441,0-0.8-0.359-0.8-0.8v-0.8h15.6V15.5z M7,4.5v4.639l1.031-0.516l1,1.998l1.649-0.826l-1-1.997l1.031-0.516L7,4.5z"/>
</g>
</svg>
