<?xml version="1.0" encoding="iso-8859-1"?>
<!-- Generator: Adobe Illustrator 23.0.1, SVG Export Plug-In . SVG Version: 6.00 Build 0)  -->
<svg version="1.1" id="payment_x5F_by_x5F_alias-layer"
	 xmlns="http://www.w3.org/2000/svg" xmlns:xlink="http://www.w3.org/1999/xlink" x="0px" y="0px" viewBox="0 0 18 18"
	 style="enable-background:new 0 0 18 18;" xml:space="preserve">
<g id="payment_x5F_by_x5F_alias">
	<rect y="0" style="opacity:0.25;fill:none;" width="18" height="18"/>
	<path d="M8,0H1v7h7V0z M6.8,5.8H2.2V1.2h4.6V5.8z M11,0v7h7V0H11z M16.8,5.8h-4.6V1.2h4.6V5.8z M11,17h7v-7h-7V17z M12.2,11.2h4.6
		v4.6h-4.6V11.2z M5,8c-2.761,0-5,2.239-5,5s2.239,5,5,5s5-2.239,5-5S7.761,8,5,8z M5,16.8c-2.095,0-3.8-1.705-3.8-3.8
		S2.905,9.2,5,9.2s3.8,1.705,3.8,3.8S7.095,16.8,5,16.8z M2.5,12.652v1.697l1.9-1.9V15.6h1.2v-3.151l1.9,1.9v-1.697L5,10.151
		L2.5,12.652z"/>
</g>
</svg>
