<?xml version="1.0" encoding="iso-8859-1"?>
<!-- Generator: Adobe Illustrator 23.0.1, SVG Export Plug-In . SVG Version: 6.00 Build 0)  -->
<svg version="1.1" id="payments_x5F_and_x5F_transfers-layer"
	 xmlns="http://www.w3.org/2000/svg" xmlns:xlink="http://www.w3.org/1999/xlink" x="0px" y="0px" viewBox="0 0 18 18"
	 style="enable-background:new 0 0 18 18;" xml:space="preserve">
<g id="payments_x5F_and_x5F_transfers">
	<rect y="0" style="opacity:0.25;fill:none;" width="18" height="18"/>
	<path d="M9,0C4.029,0,0,4.029,0,9s4.029,9,9,9s9-4.029,9-9S13.971,0,9,0z M9,16.8c-4.301,0-7.8-3.499-7.8-7.8S4.699,1.2,9,1.2
		c4.301,0,7.8,3.499,7.8,7.8S13.301,16.8,9,16.8z M9.064,6.352c1.283,0,1.292,0.651,1.295,0.866l1.2-0.018
		C11.544,6.092,10.807,5.353,9.6,5.188V4H8.4v1.216C7.207,5.431,6.44,6.226,6.44,7.337c0,1.494,1.342,1.91,2.059,2.133l0.641,0.205
		c0.957,0.297,1.219,0.51,1.219,0.988c0,0.914-1.089,0.985-1.423,0.985c-1.283,0-1.292-0.651-1.295-0.866L6.44,10.8
		c0.016,1.108,0.753,1.847,1.959,2.012V14h1.2v-1.216c1.193-0.215,1.959-1.01,1.959-2.121c0-1.494-1.342-1.91-2.063-2.135
		L8.859,8.325c-0.957-0.297-1.219-0.51-1.219-0.988C7.641,6.423,8.73,6.352,9.064,6.352z"/>
</g>
</svg>
