<?xml version="1.0" encoding="iso-8859-1"?>
<!-- Generator: Adobe Illustrator 23.0.1, SVG Export Plug-In . SVG Version: 6.00 Build 0)  -->
<svg version="1.1" id="payment_x5F_person-layer" xmlns="http://www.w3.org/2000/svg" xmlns:xlink="http://www.w3.org/1999/xlink"
	 x="0px" y="0px" viewBox="0 0 18 18" style="enable-background:new 0 0 18 18;" xml:space="preserve">
<g id="payment_x5F_person">
	<rect y="0" style="opacity:0.25;fill:none;" width="18" height="18"/>
	<path d="M13.396,4.011C13.396,1.574,12.064,0,10.004,0c-2.07,0-3.408,1.574-3.408,4.011c0,2.085,1.054,4.188,3.408,4.188
		C12.334,8.199,13.396,6.028,13.396,4.011z M10.004,7c-1.63,0-2.208-1.61-2.208-2.989c0-0.659,0.159-2.812,2.208-2.812
		c2.034,0,2.192,2.152,2.192,2.812C12.196,5.121,11.734,7,10.004,7z M10.422,16h7.464l-1.74-4.306v-0.001
		c-0.19-0.47-0.454-0.88-0.784-1.221c-0.549-0.565-1.212-1.031-1.97-1.385l-0.375-0.175l-0.297,0.289
		c-0.604,0.589-1.34,0.923-2.182,1.025c0.184,0.366,0.332,0.752,0.441,1.154c0.838-0.151,1.603-0.495,2.255-1.03
		c0.48,0.264,0.906,0.584,1.268,0.956c0.221,0.229,0.4,0.51,0.533,0.836l1.073,2.657h-5.175C10.803,15.221,10.632,15.622,10.422,16z
		 M2.5,12.652v1.697l1.9-1.9V15.6h1.2v-3.151l1.9,1.9v-1.697L5,10.151L2.5,12.652z M5,8c-2.761,0-5,2.239-5,5s2.239,5,5,5
		s5-2.239,5-5S7.761,8,5,8z M5,16.8c-2.095,0-3.8-1.705-3.8-3.8S2.905,9.2,5,9.2s3.8,1.705,3.8,3.8S7.095,16.8,5,16.8z"/>
</g>
</svg>
