<?xml version="1.0" encoding="iso-8859-1"?>
<!-- Generator: Adobe Illustrator 23.0.1, SVG Export Plug-In . SVG Version: 6.00 Build 0)  -->
<svg version="1.1" id="payment_x5F_direct_x5F_debit-layer"
	 xmlns="http://www.w3.org/2000/svg" xmlns:xlink="http://www.w3.org/1999/xlink" x="0px" y="0px" viewBox="0 0 18 18"
	 style="enable-background:new 0 0 18 18;" xml:space="preserve">
<g id="payment_x5F_direct_x5F_debit">
	<rect style="opacity:0.25;fill:none;" width="18" height="18"/>
	<path d="M9,2C4.029,2,0,5.134,0,9c0,3.866,4.029,7,9,7s9-3.134,9-7C18,5.134,13.971,2,9,2z M11.855,14.405
		c-1.8,0.425-4.113,0.349-5.652-0.023C4.227,13.904,1.978,12.86,2,10.581c0.022-2.236,2.718-3.888,8.034-3.888v-4
		C12.642,2.693,16,5.346,16,9C16,12.273,13.842,13.936,11.855,14.405z M5.285,10.914c0,1.799,2.089,3.258,4.665,3.258V7.656
		C7.374,7.656,5.285,9.115,5.285,10.914z"/>
</g>
</svg>
