<?xml version="1.0" encoding="iso-8859-1"?>
<!-- Generator: Adobe Illustrator 23.0.1, SVG Export Plug-In . SVG Version: 6.00 Build 0)  -->
<svg version="1.1" id="payment-layer" xmlns="http://www.w3.org/2000/svg" xmlns:xlink="http://www.w3.org/1999/xlink" x="0px"
	 y="0px" viewBox="0 0 18 18" style="enable-background:new 0 0 18 18;" xml:space="preserve">
<g id="payment">
	<rect y="0" style="opacity:0.25;fill:none;" width="18" height="18"/>
	<path d="M9,0C4.029,0,0,4.029,0,9s4.029,9,9,9s9-4.029,9-9S13.971,0,9,0z M9,16.8c-4.301,0-7.8-3.499-7.8-7.8S4.699,1.2,9,1.2
		c4.301,0,7.8,3.499,7.8,7.8S13.301,16.8,9,16.8z M5,8.152v1.696l3.4-3.399V14h1.2V6.449L13,9.848V8.152l-4-4L5,8.152z"/>
</g>
</svg>
