<?xml version="1.0" encoding="iso-8859-1"?>
<!-- Generator: Adobe Illustrator 23.0.1, SVG Export Plug-In . SVG Version: 6.00 Build 0)  -->
<svg version="1.1" id="personal_x5F_finance_x5F_management-layer"
	 xmlns="http://www.w3.org/2000/svg" xmlns:xlink="http://www.w3.org/1999/xlink" x="0px" y="0px" viewBox="0 0 18 18"
	 style="enable-background:new 0 0 18 18;" xml:space="preserve">
<g id="personal_x5F_finance_x5F_management">
	<rect y="0" style="opacity:0.25;fill:none;" width="18" height="18"/>
	<path d="M14.2,0L14.2,0H0v18h18V3.8L14.2,0z M16.303,3.8H14.2V1.697L16.303,3.8z M5.6,11.066h2.8v2.268H5.6V11.066z M4.4,13.334
		H1.2v-2.268h3.2V13.334z M8.4,14.533V16.8H5.6v-2.267H8.4z M9.6,14.533h2.8V16.8H9.6V14.533z M9.6,13.334v-2.268h2.8v2.268H9.6z
		 M13.6,11.066h3.2v2.268h-3.2V11.066z M13.6,9.867V7.6h3.2v2.268H13.6z M12.4,9.867H9.6V7.6h2.8V9.867z M8.4,9.867H5.6V7.6h2.8
		V9.867z M4.4,9.867H1.2V7.6h3.2V9.867z M1.2,14.533h3.2V16.8H1.2V14.533z M13.6,16.8v-2.267h3.2V16.8H13.6z M16.8,6.4H1.2V1.2H13V5
		h3.8V6.4z"/>
</g>
</svg>
