<?xml version="1.0" encoding="iso-8859-1"?>
<!-- Generator: Adobe Illustrator 23.0.1, SVG Export Plug-In . SVG Version: 6.00 Build 0)  -->
<svg version="1.1" id="portfolio-layer" xmlns="http://www.w3.org/2000/svg" xmlns:xlink="http://www.w3.org/1999/xlink" x="0px"
	 y="0px" viewBox="0 0 18 18" style="enable-background:new 0 0 18 18;" xml:space="preserve">
<g id="portfolio_2_">
	<rect style="fill:none;" width="18" height="18"/>
	<path d="M16.471,6.5H5.109c-0.815,0-1.549,0.495-1.854,1.251L1.2,12.835V5c0-0.163,0.137-0.3,0.3-0.3h12c0.163,0,0.3,0.137,0.3,0.3
		v0.3H15V5c0-0.825-0.675-1.5-1.5-1.5H11V2c0-0.828-0.672-1.5-1.5-1.5h-4C4.672,0.5,4,1.172,4,2v1.5H1.5C0.675,3.5,0,4.175,0,5
		l0.01,11.16c0.042,0.717,0.626,1.34,1.413,1.34h11.868c0.58,0,1.101-0.352,1.318-0.889l3.252-8.049
		C18.26,7.576,17.534,6.5,16.471,6.5z M5.2,2c0-0.165,0.135-0.3,0.3-0.3h4c0.165,0,0.3,0.135,0.3,0.3v1.5H5.2V2z M16.749,8.112
		l-3.252,8.049c-0.034,0.084-0.115,0.139-0.206,0.139H1.423c-0.097,0-0.154-0.053-0.184-0.098c-0.044-0.065-0.051-0.134-0.022-0.207
		L4.367,8.2C4.49,7.896,4.781,7.7,5.109,7.7h11.362c0.132,0,0.208,0.072,0.249,0.132C16.76,7.893,16.798,7.99,16.749,8.112z"/>
</g>
</svg>
