<?xml version="1.0" encoding="iso-8859-1"?>
<!-- Generator: Adobe Illustrator 23.0.1, SVG Export Plug-In . SVG Version: 6.00 Build 0)  -->
<svg version="1.1" id="presentation-layer" xmlns="http://www.w3.org/2000/svg" xmlns:xlink="http://www.w3.org/1999/xlink" x="0px"
	 y="0px" viewBox="0 0 18 18" style="enable-background:new 0 0 18 18;" xml:space="preserve">
<g id="presentation_1_">
	<rect y="0" style="fill:none;" width="18" height="18"/>
	<rect y="0" style="opacity:0.3;fill:none;" width="18" height="18"/>
	<path d="M18,1H9.6V0H8.4v1H0v13h8.151l-4,4h1.696L8.4,15.449V18h1.2v-2.551L12.152,18h1.696l-4-4H18V1z M16.8,12.8H1.2V2.2h15.6
		V12.8z M4,6.5c0.552,0,1-0.448,1-1c0-0.552-0.448-1-1-1s-1,0.448-1,1C3,6.052,3.448,6.5,4,6.5z M4,10.5c0.552,0,1-0.448,1-1
		c0-0.552-0.448-1-1-1s-1,0.448-1,1C3,10.052,3.448,10.5,4,10.5z M15,5H7v1h8V5z M15,9H7v1h8V9z"/>
</g>
</svg>
