<?xml version="1.0" encoding="iso-8859-1"?>
<!-- Generator: Adobe Illustrator 23.0.1, SVG Export Plug-In . SVG Version: 6.00 Build 0)  -->
<svg version="1.1" id="print-layer" xmlns="http://www.w3.org/2000/svg" xmlns:xlink="http://www.w3.org/1999/xlink" x="0px"
	 y="0px" viewBox="0 0 18 18" style="enable-background:new 0 0 18 18;" xml:space="preserve">
<g id="print">
	<rect style="opacity:0.25;fill:none;" width="18" height="18"/>
	<path d="M18,8c0-1.104-0.896-2-2-2h-1V0H3v6H2C0.895,6,0,6.896,0,8v8h3v2h12v-2h3V8z M4.2,1.2h9.6V6H4.2V1.2z M13.8,16.8H4.2v-4.6
		h9.6V16.8z M16.8,14.8H15V11H3v3.8H1.2V8c0-0.441,0.359-0.8,0.8-0.8h14c0.441,0,0.8,0.359,0.8,0.8V14.8z"/>
</g>
</svg>
