<?xml version="1.0" encoding="iso-8859-1"?>
<!-- Generator: Adobe Illustrator 23.0.1, SVG Export Plug-In . SVG Version: 6.00 Build 0)  -->
<svg version="1.1" id="products_x5F_and_x5F_services-layer"
	 xmlns="http://www.w3.org/2000/svg" xmlns:xlink="http://www.w3.org/1999/xlink" x="0px" y="0px" viewBox="0 0 18 18"
	 style="enable-background:new 0 0 18 18;" xml:space="preserve">
<g id="products_x5F_and_x5F_services">
	<rect y="0" style="opacity:0.25;fill:none;" width="18" height="18"/>
	<path d="M14.2,0L14.2,0H6v5.8h1.2V1.2H13V5h3.8v7.8h-0.6V14H18V3.8L14.2,0z M14.2,3.8V1.697L16.303,3.8H14.2z M13.5,7h-12
		C0.675,7,0,7.675,0,8.5v8C0,17.325,0.675,18,1.5,18h12c0.825,0,1.5-0.675,1.5-1.5v-8C15,7.675,14.325,7,13.5,7z M13.8,16.5
		c0,0.163-0.137,0.3-0.3,0.3h-12c-0.163,0-0.3-0.137-0.3-0.3v-5.3h12.6V16.5z M13.8,10H1.2V8.5c0-0.163,0.137-0.3,0.3-0.3h12
		c0.163,0,0.3,0.137,0.3,0.3V10z M12,12.8H9V14h3V12.8z"/>
</g>
</svg>
