<?xml version="1.0" encoding="iso-8859-1"?>
<!-- Generator: Adobe Illustrator 23.0.1, SVG Export Plug-In . SVG Version: 6.00 Build 0)  -->
<svg version="1.1" id="qr_x5F_code-layer" xmlns="http://www.w3.org/2000/svg" xmlns:xlink="http://www.w3.org/1999/xlink" x="0px"
	 y="0px" viewBox="0 0 18 18" style="enable-background:new 0 0 18 18;" xml:space="preserve">
<g id="qr_x5F_code">
	<path d="M0,8h8V0H0V8z M1.2,1.2h5.6v5.6H1.2V1.2z M3,5h2V3H3V5z M10,0v2h2V0H10z M14,2h-2v2h2V2z M12,4h-2v4h4V6h-2V4z M14,4v2h2V4
		H14z M18,8V6h-2v2H18z M18,0h-2v4h2V0z M0,18h8v-8H0V18z M1.2,11.2h5.6v5.6H1.2V11.2z M3,15h2v-2H3V15z M10,18h8v-8h-8V18z
		 M11.2,11.2h5.6v5.6h-5.6V11.2z M13,15h2v-2h-2V15z"/>
	<g style="opacity:0.25;">
		<rect y="0" style="fill:none;" width="18" height="18"/>
	</g>
</g>
</svg>
