<?xml version="1.0" encoding="iso-8859-1"?>
<!-- Generator: Adobe Illustrator 23.0.1, SVG Export Plug-In . SVG Version: 6.00 Build 0)  -->
<svg version="1.1" id="rates-layer" xmlns="http://www.w3.org/2000/svg" xmlns:xlink="http://www.w3.org/1999/xlink" x="0px"
	 y="0px" viewBox="0 0 18 18" style="enable-background:new 0 0 18 18;" xml:space="preserve">
<g id="rates">
	<rect style="opacity:0.25;fill:none;" width="18" height="18"/>
	<path d="M14,11.001c-1.657,0-3,1.343-3,3c0,1.657,1.343,3,3,3s3-1.343,3-3C17,12.344,15.657,11.001,14,11.001z M14,15.8
		c-0.993,0-1.8-0.807-1.8-1.8c0-0.992,0.807-1.8,1.8-1.8s1.8,0.807,1.8,1.8C15.8,14.993,14.993,15.8,14,15.8z M4,6.999
		c1.657,0,3-1.343,3-3S5.657,1,4,1S1,2.343,1,4S2.343,6.999,4,6.999z M4,2.2c0.993,0,1.8,0.807,1.8,1.8s-0.807,1.8-1.8,1.8
		S2.2,4.992,2.2,4S3.007,2.2,4,2.2z M15.576,1.577l-14,13.998l0.849,0.848l14-13.998L15.576,1.577z"/>
</g>
</svg>
