<?xml version="1.0" encoding="iso-8859-1"?>
<!-- Generator: Adobe Illustrator 23.0.1, SVG Export Plug-In . SVG Version: 6.00 Build 0)  -->
<svg version="1.1" id="renew-layer" xmlns="http://www.w3.org/2000/svg" xmlns:xlink="http://www.w3.org/1999/xlink" x="0px"
	 y="0px" viewBox="0 0 18 18" style="enable-background:new 0 0 18 18;" xml:space="preserve">
<g id="renew">
	<rect y="0" style="opacity:0.25;fill:none;" width="18" height="18"/>
	<path d="M9,16.8c-3.16,0-5.88-1.892-7.103-4.6H7L5.8,11H0v5.8L1.2,18v-4.536C2.75,16.171,5.657,18,9,18c4.971,0,9-4.029,9-9h-1.2
		C16.8,13.301,13.301,16.8,9,16.8z M16.8,0v4.536C15.25,1.829,12.343,0,9,0C4.03,0,0,4.029,0,9h1.2c0-4.301,3.499-7.8,7.8-7.8
		c3.16,0,5.88,1.892,7.103,4.6H11L12.2,7H18V1.2L16.8,0z"/>
</g>
</svg>
