<?xml version="1.0" encoding="iso-8859-1"?>
<!-- Generator: Adobe Illustrator 23.0.1, SVG Export Plug-In . SVG Version: 6.00 Build 0)  -->
<svg version="1.1" id="report-layer" xmlns="http://www.w3.org/2000/svg" xmlns:xlink="http://www.w3.org/1999/xlink" x="0px"
	 y="0px" viewBox="0 0 18 18" style="enable-background:new 0 0 18 18;" xml:space="preserve">
<g id="report">
	<rect y="0" style="opacity:0.25;fill:none;" width="18" height="18"/>
	<path d="M12,0H0v18h12c1.104,0,2-0.895,2-2V2C14,0.895,13.104,0,12,0z M12.8,16c0,0.441-0.359,0.8-0.8,0.8H1.2V1.2H12
		c0.441,0,0.8,0.359,0.8,0.8V16z M3,5.2h8V4H3V5.2z M8,14h3v-1.2H8V14z M15.2,4.474v1.294l1.238,0.5L15.2,9.332v3.204l2.8-6.93
		L15.2,4.474z"/>
</g>
</svg>
