<?xml version="1.0" encoding="iso-8859-1"?>
<!-- Generator: Adobe Illustrator 23.0.1, SVG Export Plug-In . SVG Version: 6.00 Build 0)  -->
<svg version="1.1" id="reward-layer" xmlns="http://www.w3.org/2000/svg" xmlns:xlink="http://www.w3.org/1999/xlink" x="0px"
	 y="0px" viewBox="0 0 18 18" style="enable-background:new 0 0 18 18;" xml:space="preserve">
<g id="reward_1_">
	<path id="reward" d="M15.482,4c0.743-0.978,0.678-2.376-0.214-3.27c-0.974-0.973-2.558-0.974-3.531,0.001L8.999,3.469L6.261,0.73
		C5.287-0.242,3.704-0.241,2.73,0.731C1.839,1.624,1.774,3.022,2.517,4H1v14h16V4H15.482z M12.586,1.58
		c0.505-0.506,1.328-0.505,1.833-0.001c0.505,0.506,0.505,1.329,0,1.834L13.832,4h-3.667L12.586,1.58z M3.579,3.414
		c-0.505-0.506-0.505-1.329,0-1.834c0.504-0.506,1.328-0.506,1.833-0.001L7.833,4H4.165L3.579,3.414z M2.2,5.2h6.2v5.2H2.2V5.2z
		 M2.2,16.8v-5.2h6.2v5.2H2.2z M15.8,16.8H9.6v-5.2h6.2V16.8z M9.6,10.4V5.2h6.2v5.2H9.6z"/>
	<g style="opacity:0.25;">
		<rect style="fill:none;" width="18" height="18"/>
	</g>
</g>
</svg>
