<?xml version="1.0" encoding="iso-8859-1"?>
<!-- Generator: Adobe Illustrator 23.0.1, SVG Export Plug-In . SVG Version: 6.00 Build 0)  -->
<svg version="1.1" id="saving-layer" xmlns="http://www.w3.org/2000/svg" xmlns:xlink="http://www.w3.org/1999/xlink" x="0px"
	 y="0px" viewBox="0 0 18 18" style="enable-background:new 0 0 18 18;" xml:space="preserve">
<g id="saving">
	<rect y="0" style="opacity:0.25;fill:none;" width="18" height="18"/>
	<path d="M9.773,15.539C9.609,15.89,8.208,16.8,5.5,16.8c-2.744,0-4.15-0.936-4.282-1.264c-0.4-0.173-0.762-0.37-1.077-0.591
		C0.051,15.124,0,15.309,0,15.5C0,16.881,2.462,18,5.5,18c3.038,0,5.5-1.119,5.5-2.5c0-0.191-0.051-0.376-0.141-0.555
		C10.542,15.168,10.177,15.366,9.773,15.539z M16.5,0h-12C3.675,0,3,0.675,3,1.5v4.421c0.382-0.077,0.782-0.137,1.2-0.177V1.5
		c0-0.163,0.137-0.3,0.3-0.3h12c0.163,0,0.3,0.137,0.3,0.3v8c0,0.163-0.137,0.3-0.3,0.3h-4.204c-0.052,0.428-0.209,0.831-0.467,1.2
		H16.5c0.825,0,1.5-0.675,1.5-1.5v-8C18,0.675,17.325,0,16.5,0z M5.5,7C2.462,7,0,8.119,0,9.5C0,10.881,2.462,12,5.5,12
		c3.038,0,5.5-1.119,5.5-2.5C11,8.119,8.538,7,5.5,7z M5.5,10.8c-2.817,0-4.235-0.991-4.3-1.294C1.265,9.191,2.683,8.2,5.5,8.2
		s4.235,0.991,4.3,1.294C9.735,9.809,8.317,10.8,5.5,10.8z M6,4.2v1.493c0.71,0.025,1.38,0.103,2,0.228V4.2H6z M9.773,12.539
		C9.609,12.89,8.208,13.8,5.5,13.8c-2.744,0-4.15-0.936-4.282-1.264c-0.4-0.173-0.762-0.37-1.077-0.591
		C0.051,12.124,0,12.309,0,12.5C0,13.881,2.462,15,5.5,15c3.038,0,5.5-1.119,5.5-2.5c0-0.191-0.051-0.376-0.141-0.555
		C10.542,12.168,10.177,12.366,9.773,12.539z"/>
</g>
</svg>
