<?xml version="1.0" encoding="iso-8859-1"?>
<!-- Generator: Adobe Illustrator 23.0.1, SVG Export Plug-In . SVG Version: 6.00 Build 0)  -->
<svg version="1.1" id="search-layer" xmlns="http://www.w3.org/2000/svg" xmlns:xlink="http://www.w3.org/1999/xlink" x="0px"
	 y="0px" viewBox="0 0 18 18" style="enable-background:new 0 0 18 18;" xml:space="preserve">
<g id="search">
	
		<rect x="0" y="0" transform="matrix(-1 -4.446411e-11 4.446411e-11 -1 18 18)" style="opacity:0.4;fill:none;" width="18" height="18"/>
	<path d="M2.197,12.803C3.661,14.268,5.581,15,7.5,15c1.732,0,3.46-0.602,4.858-1.794l4.768,4.767l0.849-0.848l-4.768-4.768
		c2.513-2.947,2.383-7.376-0.402-10.161C11.339,0.732,9.419,0,7.5,0C5.581,0,3.661,0.732,2.197,2.197
		C-0.732,5.126-0.732,9.874,2.197,12.803z M1.2,7.5c0-1.683,0.656-3.265,1.845-4.455S5.817,1.2,7.5,1.2
		c1.683,0,3.265,0.655,4.455,1.845c2.456,2.456,2.456,6.453,0,8.91C10.765,13.145,9.183,13.8,7.5,13.8
		c-1.683,0-3.265-0.655-4.455-1.845C1.855,10.765,1.2,9.183,1.2,7.5z"/>
</g>
</svg>
