<?xml version="1.0" encoding="utf-8"?>
<!-- Generator: Adobe Illustrator 20.1.0, SVG Export Plug-In . SVG Version: 6.00 Build 0)  -->
<svg version="1.1" id="security_x5F_entitlements-layer"
	 xmlns="http://www.w3.org/2000/svg" xmlns:xlink="http://www.w3.org/1999/xlink" x="0px" y="0px" viewBox="0 0 18 18"
	 style="enable-background:new 0 0 18 18;" xml:space="preserve">
<g>
	<path d="M0,11.5L0,11.5c0,3.1,2.1,5.7,4.9,6.5c2.9-0.8,5-3.4,5-6.5V9.1H0V11.5z M1.2,10.3h7.5v1c0,2.4-1.5,4.6-3.8,5.4
		c-2.2-0.8-3.8-3-3.8-5.4V10.3z"/>
	<path d="M11.5,6.4c1.8,0,2.6-1.7,2.6-3.2c0-2.2-1.3-3-2.6-3c-1.3,0-2.6,0.8-2.6,3C8.9,4.8,9.7,6.4,11.5,6.4z M11.5,1.3
		C12,1.3,13,1.5,13,3.2c0,0.8-0.3,2.1-1.5,2.1c-1.4,0-1.5-1.7-1.5-2.1C10,1.5,10.9,1.3,11.5,1.3z"/>
	<path d="M16.7,8.7c-0.2-0.4-0.4-0.7-0.6-1c-0.6-0.7-1.4-1.1-2.4-1.4l-0.1,0l-2.1,2.1L9.3,6.3l-0.1,0C8.3,6.6,7.6,7.1,6.9,7.7
		C6.8,7.9,6.7,8,6.6,8.1h1.6c0.3-0.2,0.6-0.4,0.9-0.5l2.4,2.4l2.4-2.4c0.5,0.2,1,0.6,1.4,1c0.2,0.2,0.3,0.4,0.4,0.6l0.7,1.8h-5.5
		c0,0.3,0,0.7,0,1.1H18L16.7,8.7z"/>
</g>
</svg>
