<?xml version="1.0" encoding="iso-8859-1"?>
<!-- Generator: Adobe Illustrator 23.0.1, SVG Export Plug-In . SVG Version: 6.00 Build 0)  -->
<svg version="1.1" id="security_x5F_secure-layer" xmlns="http://www.w3.org/2000/svg" xmlns:xlink="http://www.w3.org/1999/xlink"
	 x="0px" y="0px" viewBox="0 0 18 18" style="enable-background:new 0 0 18 18;" xml:space="preserve">
<g id="security_x5F_secure">
	<rect style="opacity:0.4;fill:none;" width="18" height="18"/>
	<path d="M15.5,5.734H14V4c0-2.2-1.8-4-4-4H8C5.8,0,4,1.8,4,4v1.734H2.5c-0.825,0-1.5,0.675-1.5,1.5V16.5C1,17.325,1.675,18,2.5,18
		h13c0.825,0,1.5-0.675,1.5-1.5V7.234C17,6.409,16.325,5.734,15.5,5.734z M5.2,4c0-1.544,1.256-2.8,2.8-2.8h2
		c1.544,0,2.8,1.256,2.8,2.8v1.734h-1.2V4c0-0.882-0.718-1.6-1.6-1.6H8C7.118,2.4,6.4,3.118,6.4,4v1.734H5.2V4z M10.4,4v1.734H7.6V4
		c0-0.217,0.183-0.4,0.4-0.4h2C10.217,3.6,10.4,3.783,10.4,4z M15.8,16.5c0,0.163-0.137,0.3-0.3,0.3h-13c-0.163,0-0.3-0.137-0.3-0.3
		V7.234c0-0.163,0.137-0.3,0.3-0.3h13c0.163,0,0.3,0.137,0.3,0.3V16.5z M8.4,14h1.2v-4H8.4V14z"/>
</g>
</svg>
