<?xml version="1.0" encoding="iso-8859-1"?>
<!-- Generator: Adobe Illustrator 23.0.1, SVG Export Plug-In . SVG Version: 6.00 Build 0)  -->
<svg version="1.1" id="security_x5F_settings-layer"
	 xmlns="http://www.w3.org/2000/svg" xmlns:xlink="http://www.w3.org/1999/xlink" x="0px" y="0px" viewBox="0 0 18 18"
	 style="enable-background:new 0 0 18 18;" xml:space="preserve">
<g id="security_x5F_settings">
	<rect y="0" style="opacity:0.25;fill:none;" width="18" height="18"/>
	<path d="M5,8.221c0,2.525,1.69,4.653,4,5.32c2.31-0.667,4-2.795,4-5.32V6H5V8.221z M6.2,7.2h5.6v1.021
		c0,1.803-1.135,3.423-2.8,4.056c-1.665-0.633-2.8-2.253-2.8-4.056V7.2z M16.376,6.992c-0.168-0.618-0.416-1.218-0.742-1.787
		l0.685-1.614L14.408,1.68l-1.614,0.685c-0.569-0.325-1.168-0.574-1.786-0.742L10.352,0H7.648L6.992,1.624
		C6.374,1.791,5.774,2.04,5.206,2.365L3.592,1.68L1.68,3.592l0.685,1.614C2.04,5.774,1.791,6.374,1.623,6.992L0,7.648v2.703
		l1.623,0.656c0.168,0.619,0.416,1.218,0.742,1.787L1.68,14.408l1.912,1.912l1.614-0.685c0.569,0.326,1.168,0.574,1.787,0.742
		L7.648,18h2.703l0.656-1.624c0.619-0.167,1.218-0.416,1.787-0.742l1.614,0.685l1.912-1.912l-0.685-1.614
		c0.326-0.569,0.574-1.168,0.742-1.787L18,10.352V7.648L16.376,6.992z M16.8,9.542l-0.873,0.353l-0.553,0.223l-0.156,0.575
		c-0.141,0.521-0.352,1.027-0.625,1.505l-0.296,0.517l0.233,0.548l0.369,0.869l-0.767,0.767l-0.868-0.369l-0.548-0.233l-0.517,0.296
		c-0.478,0.274-0.984,0.484-1.505,0.625l-0.575,0.156l-0.223,0.552L9.542,16.8H8.458l-0.353-0.873l-0.223-0.553l-0.576-0.156
		c-0.521-0.141-1.027-0.351-1.504-0.625l-0.517-0.296L4.736,14.53l-0.868,0.369l-0.767-0.767l0.369-0.868l0.233-0.548l-0.296-0.517
		c-0.274-0.479-0.484-0.985-0.625-1.505l-0.156-0.575L2.073,9.895L1.2,9.542V8.458l0.873-0.353l0.553-0.223l0.156-0.575
		c0.141-0.52,0.351-1.027,0.625-1.505l0.296-0.517L3.47,4.736L3.101,3.868l0.767-0.767L4.737,3.47l0.548,0.233l0.517-0.296
		C6.28,3.133,6.786,2.923,7.306,2.782l0.575-0.156l0.223-0.553L8.458,1.2h1.085l0.353,0.873l0.223,0.553l0.575,0.156
		c0.521,0.141,1.027,0.352,1.504,0.625l0.517,0.296l0.548-0.233l0.869-0.369l0.767,0.767L14.53,4.737l-0.233,0.548l0.296,0.517
		c0.274,0.478,0.484,0.984,0.625,1.505l0.156,0.575l0.553,0.223L16.8,8.458V9.542z"/>
</g>
</svg>
