<?xml version="1.0" encoding="iso-8859-1"?>
<!-- Generator: Adobe Illustrator 23.0.1, SVG Export Plug-In . SVG Version: 6.00 Build 0)  -->
<svg version="1.1" id="security_x5F_fingerprint-layer"
	 xmlns="http://www.w3.org/2000/svg" xmlns:xlink="http://www.w3.org/1999/xlink" x="0px" y="0px" viewBox="0 0 18 18"
	 style="enable-background:new 0 0 18 18;" xml:space="preserve">
<g id="security_x5F_fingerprint">
	<rect y="0" style="opacity:0.25;fill:none;" width="18" height="18"/>
	<path d="M9,4.089c0.802,0,1.579,0.281,2.247,0.812c0.259,0.206,0.637,0.162,0.843-0.096c0.206-0.26,0.163-0.638-0.096-0.844
		C11.111,3.26,10.076,2.89,9,2.89c-2.915,0-5.287,2.743-5.287,6.115c0,1.31,0.352,2.558,1.004,3.59
		c0.352,0.608,0.995,0.985,1.676,0.985c1.076,0,1.952-0.915,1.952-2.04c0-0.403-0.112-0.793-0.33-1.135
		c-0.251-0.381-0.389-0.879-0.389-1.4c0-1.099,0.629-2.026,1.373-2.026s1.373,0.928,1.373,2.026c0,0.871-0.383,1.645-0.953,1.926
		c-0.297,0.146-0.419,0.507-0.272,0.804s0.506,0.418,0.804,0.272c0.985-0.486,1.622-1.664,1.622-3.002
		c0-1.778-1.154-3.226-2.573-3.226S6.427,7.227,6.427,9.005c0,0.754,0.208,1.485,0.582,2.053c0.09,0.141,0.137,0.308,0.137,0.482
		c0,0.464-0.337,0.841-0.752,0.841c-0.255,0-0.5-0.148-0.65-0.407c-0.543-0.86-0.831-1.887-0.831-2.969
		C4.914,6.294,6.747,4.089,9,4.089z M2.2,9.005c0-0.331-0.269-0.6-0.6-0.6S1,8.674,1,9.005c0,2.927,1.271,5.68,3.4,7.365
		c0.11,0.087,0.242,0.129,0.372,0.129c0.177,0,0.353-0.077,0.471-0.228c0.206-0.26,0.162-0.637-0.098-0.843
		C3.301,13.97,2.2,11.568,2.2,9.005z M9,0C5.646,0,2.623,2.383,1.479,5.929C1.376,6.244,1.55,6.583,1.865,6.685
		C2.18,6.785,2.518,6.613,2.62,6.298C3.604,3.248,6.168,1.199,9,1.199c3.75,0,6.8,3.502,6.8,7.806c0,3.446-2.015,6.527-4.922,7.499
		c-0.006,0.003-0.619,0.231-1.346,0.299c-0.33,0.031-0.573,0.323-0.542,0.653C9.019,17.768,9.28,18,9.586,18
		c0.019,0,0.038,0,0.056-0.002c0.896-0.084,1.63-0.36,1.637-0.363C14.648,16.509,17,12.96,17,9.005C17,4.039,13.411,0,9,0z
		 M14.287,9.005c0-0.873-0.155-1.716-0.462-2.504c-0.12-0.311-0.469-0.462-0.776-0.343c-0.309,0.12-0.462,0.468-0.342,0.776
		c0.252,0.649,0.38,1.347,0.38,2.07c0,2.299-1.173,4.123-3.073,4.765c-1.632,0.588-2.968,1.607-3.862,2.95
		c-0.184,0.276-0.109,0.648,0.167,0.832c0.102,0.068,0.218,0.101,0.332,0.101c0.194,0,0.384-0.094,0.5-0.267
		c0.75-1.128,1.881-1.987,3.258-2.483C12.8,14.096,14.287,11.835,14.287,9.005z"/>
</g>
</svg>
