<?xml version="1.0" encoding="iso-8859-1"?>
<!-- Generator: Adobe Illustrator 23.0.1, SVG Export Plug-In . SVG Version: 6.00 Build 0)  -->
<svg version="1.1" id="security_x5F_secure_x5F_key-layer"
	 xmlns="http://www.w3.org/2000/svg" xmlns:xlink="http://www.w3.org/1999/xlink" x="0px" y="0px" viewBox="0 0 18 18"
	 style="enable-background:new 0 0 18 18;" xml:space="preserve">
<g id="security_x5F_secure_x5F_key">
	<rect style="opacity:0.25;fill:none;" width="18" height="18"/>
	<path d="M4.8,8.6c0.442,0,0.8-0.358,0.8-0.8C5.6,7.358,5.242,7,4.8,7S4,7.358,4,7.8C4,8.242,4.358,8.6,4.8,8.6z M4.8,15
		c0.442,0,0.8-0.358,0.8-0.8c0-0.442-0.358-0.8-0.8-0.8S4,13.758,4,14.2C4,14.642,4.358,15,4.8,15z M4.8,11.8
		c0.442,0,0.8-0.358,0.8-0.8s-0.358-0.8-0.8-0.8S4,10.558,4,11S4.358,11.8,4.8,11.8z M9,8.6c0.442,0,0.8-0.358,0.8-0.8
		C9.8,7.358,9.442,7,9,7S8.2,7.358,8.2,7.8C8.2,8.242,8.558,8.6,9,8.6z M9,15c0.442,0,0.8-0.358,0.8-0.8c0-0.442-0.358-0.8-0.8-0.8
		s-0.8,0.358-0.8,0.8C8.2,14.642,8.558,15,9,15z M9,11.8c0.442,0,0.8-0.358,0.8-0.8S9.442,10.2,9,10.2S8.2,10.558,8.2,11
		S8.558,11.8,9,11.8z M13.2,8.6c0.442,0,0.8-0.358,0.8-0.8C14,7.358,13.642,7,13.2,7s-0.8,0.358-0.8,0.8
		C12.4,8.242,12.758,8.6,13.2,8.6z M13.2,15c0.442,0,0.8-0.358,0.8-0.8c0-0.442-0.358-0.8-0.8-0.8s-0.8,0.358-0.8,0.8
		C12.4,14.642,12.758,15,13.2,15z M13.2,11.8c0.442,0,0.8-0.358,0.8-0.8s-0.358-0.8-0.8-0.8s-0.8,0.358-0.8,0.8
		S12.758,11.8,13.2,11.8z M17,1.5C17,0.675,16.325,0,15.5,0h-13C1.675,0,1,0.675,1,1.5v15C1,17.325,1.675,18,2.5,18h13
		c0.825,0,1.5-0.675,1.5-1.5V1.5z M15.8,16.5c0,0.163-0.137,0.3-0.3,0.3h-13c-0.163,0-0.3-0.137-0.3-0.3V5h13.6V16.5z M15.8,3.8H2.2
		V1.5c0-0.163,0.137-0.3,0.3-0.3h13c0.163,0,0.3,0.137,0.3,0.3V3.8z"/>
</g>
</svg>
