<?xml version="1.0" encoding="iso-8859-1"?>
<!-- Generator: Adobe Illustrator 23.0.1, SVG Export Plug-In . SVG Version: 6.00 Build 0)  -->
<svg version="1.1" id="security_x5F_digital_x5F_identity-layer"
	 xmlns="http://www.w3.org/2000/svg" xmlns:xlink="http://www.w3.org/1999/xlink" x="0px" y="0px" viewBox="0 0 18 18"
	 style="enable-background:new 0 0 18 18;" xml:space="preserve">
<g id="security_x5F_digital_x5F_identity">
	<rect y="0" style="opacity:0.25;fill:none;" width="18" height="18"/>
	<path d="M9,9.738c2.094,0,3.047-1.942,3.047-3.747C12.047,3.81,10.851,2.4,9,2.4c-1.86,0-3.062,1.409-3.062,3.591
		C5.938,7.856,6.885,9.738,9,9.738z M9,3.6c1.714,0,1.847,1.831,1.847,2.392c0,0.946-0.389,2.548-1.847,2.548
		c-1.809,0-1.861-2.287-1.861-2.548C7.139,5.431,7.273,3.6,9,3.6z M0,0v6.031l0,1.216C0,12.927,3.803,16.5,9,18
		c5.198-1.5,9-6.289,9-11.969V0H0z M8.997,16.746c-1.463-0.456-3.304-1.263-4.833-2.638l0.227-0.561
		c0.12-0.296,0.281-0.55,0.48-0.755c0.492-0.506,1.084-0.896,1.765-1.165L9,13.99l2.36-2.358c0.677,0.269,1.266,0.658,1.753,1.16
		c0.199,0.205,0.361,0.459,0.48,0.755l0.093,0.229C12.417,15.116,10.821,16.158,8.997,16.746z M16.8,6.031
		c0,2.486-0.835,4.835-2.261,6.74c-0.157-0.301-0.338-0.581-0.564-0.815c-0.705-0.727-1.574-1.261-2.583-1.588l-0.35-0.114L9,12.293
		l-2.043-2.042l-0.349,0.112c-1.013,0.326-1.887,0.862-2.597,1.593c-0.309,0.317-0.555,0.701-0.732,1.142l-0.027,0.067
		C2.048,11.729,1.2,9.813,1.2,7.247l0-1.216V1.2h15.6V6.031z"/>
</g>
</svg>
