<?xml version="1.0" encoding="iso-8859-1"?>
<!-- Generator: Adobe Illustrator 23.0.1, SVG Export Plug-In . SVG Version: 6.00 Build 0)  -->
<svg version="1.1" id="security_x5F_password-layer"
	 xmlns="http://www.w3.org/2000/svg" xmlns:xlink="http://www.w3.org/1999/xlink" x="0px" y="0px" viewBox="0 0 18 18"
	 style="enable-background:new 0 0 18 18;" xml:space="preserve">
<g id="security_x5F_password">
	<rect style="opacity:0.25;fill:none;" width="18" height="18"/>
	<path d="M2.2,1.2h13.6v1.6H17V0H1v2.8h1.2V1.2z M8.997,16.746c-1.671-0.527-3.892-1.563-5.333-3.546H2.24
		C3.624,15.551,6.058,17.151,9,18c2.657-0.767,4.9-2.504,6.329-4.8h-1.457C12.676,14.828,10.99,16.093,8.997,16.746z M16.5,4h-15
		C0.675,4,0,4.675,0,5.5v5C0,11.325,0.675,12,1.5,12h15c0.825,0,1.5-0.675,1.5-1.5v-5C18,4.675,17.325,4,16.5,4z M16.8,10.5
		c0,0.163-0.137,0.3-0.3,0.3h-15c-0.163,0-0.3-0.137-0.3-0.3v-5c0-0.163,0.137-0.3,0.3-0.3h15c0.163,0,0.3,0.137,0.3,0.3V10.5z
		 M12,9h3V7.8h-3V9z M4.3,6.7C3.582,6.7,3,7.282,3,8s0.582,1.3,1.3,1.3S5.6,8.718,5.6,8S5.018,6.7,4.3,6.7z M9,6.7
		C8.282,6.7,7.7,7.282,7.7,8S8.282,9.3,9,9.3s1.3-0.582,1.3-1.3S9.718,6.7,9,6.7z"/>
</g>
</svg>
