<?xml version="1.0" encoding="iso-8859-1"?>
<!-- Generator: Adobe Illustrator 23.0.1, SVG Export Plug-In . SVG Version: 6.00 Build 0)  -->
<svg version="1.1" id="settings-layer" xmlns="http://www.w3.org/2000/svg" xmlns:xlink="http://www.w3.org/1999/xlink" x="0px"
	 y="0px" viewBox="0 0 18 18" style="enable-background:new 0 0 18 18;" xml:space="preserve">
<g id="settings">
	<rect y="0" style="opacity:0.4;fill:none;" width="18" height="18"/>
	<path d="M16.376,6.992c-0.168-0.618-0.416-1.218-0.742-1.786l0.685-1.614L14.408,1.68l-1.614,0.685
		c-0.569-0.325-1.168-0.574-1.787-0.742L10.352,0H7.648L6.992,1.624C6.374,1.791,5.774,2.04,5.206,2.365L3.592,1.68L1.68,3.592
		l0.685,1.614C2.04,5.774,1.791,6.374,1.624,6.992L0,7.648v2.703l1.624,0.656c0.167,0.619,0.416,1.218,0.742,1.787L1.68,14.408
		l1.912,1.912l1.614-0.685c0.569,0.326,1.168,0.574,1.787,0.742L7.648,18h2.703l0.656-1.623c0.618-0.168,1.218-0.416,1.787-0.742
		l1.614,0.685l1.912-1.912l-0.685-1.614c0.326-0.569,0.574-1.168,0.742-1.787L18,10.352V7.648L16.376,6.992z M15.927,9.895
		l-0.553,0.223l-0.156,0.576c-0.141,0.52-0.351,1.026-0.625,1.504l-0.295,0.517l0.232,0.548l0.369,0.869l-0.767,0.767l-0.868-0.369
		l-0.548-0.233l-0.517,0.296c-0.478,0.273-0.984,0.484-1.505,0.625l-0.575,0.156l-0.223,0.552L9.542,16.8H8.458l-0.353-0.873
		l-0.223-0.552l-0.576-0.156c-0.521-0.141-1.026-0.352-1.504-0.625l-0.517-0.296L4.736,14.53l-0.868,0.369l-0.767-0.767l0.369-0.868
		l0.233-0.548l-0.296-0.517c-0.273-0.478-0.484-0.984-0.625-1.505l-0.156-0.575L2.073,9.895L1.2,9.542V8.458l0.873-0.353
		l0.552-0.223l0.156-0.575c0.141-0.521,0.352-1.027,0.625-1.505l0.296-0.517L3.47,4.737L3.101,3.868l0.767-0.767L4.737,3.47
		l0.548,0.233l0.517-0.296c0.478-0.273,0.984-0.483,1.505-0.625l0.575-0.156l0.223-0.552L8.458,1.2h1.085l0.353,0.873l0.223,0.552
		l0.575,0.156c0.521,0.141,1.027,0.352,1.505,0.625l0.517,0.296l0.548-0.233l0.869-0.369l0.767,0.767L14.53,4.737l-0.233,0.548
		l0.296,0.517c0.273,0.477,0.483,0.983,0.625,1.504l0.156,0.575l0.553,0.223L16.8,8.458l0,1.084L15.927,9.895z M9,4.8
		c-1.122,0-2.177,0.437-2.97,1.23C5.237,6.823,4.8,7.878,4.8,9c0,1.122,0.437,2.177,1.23,2.97C6.823,12.763,7.878,13.2,9,13.2
		c1.122,0,2.176-0.437,2.97-1.23S13.2,10.122,13.2,9c0-1.122-0.437-2.177-1.23-2.97S10.122,4.8,9,4.8z M11.121,11.121
		C10.536,11.707,9.768,12,9,12c-0.768,0-1.536-0.293-2.122-0.879c-1.171-1.171-1.171-3.071,0-4.242C7.464,6.293,8.232,6,9,6
		c0.768,0,1.536,0.293,2.121,0.879C12.293,8.05,12.293,9.95,11.121,11.121z"/>
</g>
</svg>
