<?xml version="1.0" encoding="utf-8"?>
<!-- Generator: Adobe Illustrator 19.0.0, SVG Export Plug-In . SVG Version: 6.00 Build 0)  -->
<svg version="1.1" id="Layer_share-dark-steel-blue" xmlns="http://www.w3.org/2000/svg" xmlns:xlink="http://www.w3.org/1999/xlink" x="0px" y="0px"
	 viewBox="0 0 128 128" style="enable-background:new 0 0 128 128;" xml:space="preserve">
<style type="text/css">
	.st0{fill:none;}
	.st1{fill:#263039;}
</style>
<g id="XMLID_1_">
	<path id="XMLID_3_" class="st0" d="M64,128L64,128C28.7,128,0,99.3,0,64v0C0,28.7,28.7,0,64,0h0c35.3,0,64,28.7,64,64v0
		C128,99.3,99.3,128,64,128z"/>
	<g>
		<path id="XMLID_4_" class="st1" d="M77.9,77.2c-2.4,0-4.6,1-6.3,2.5L48.8,66.4c0.2-0.7,0.3-1.5,0.3-2.2c0-0.8-0.1-1.5-0.3-2.2
			l22.6-13.1c1.7,1.6,4,2.6,6.5,2.6c5.3,0,9.6-4.3,9.6-9.6c0-5.3-4.3-9.6-9.6-9.6c-5.3,0-9.6,4.3-9.6,9.6c0,0.8,0.1,1.5,0.3,2.2
			L46,57.1c-1.7-1.6-4-2.6-6.5-2.6c-5.3,0-9.6,4.3-9.6,9.6s4.3,9.6,9.6,9.6c2.5,0,4.8-1,6.5-2.6l22.8,13.3c-0.2,0.7-0.3,1.4-0.3,2.1
			c0,5.2,4.2,9.3,9.3,9.3c5.1,0,9.3-4.2,9.3-9.3C87.2,81.4,83,77.2,77.9,77.2L77.9,77.2z M77.9,77.2"/>
	</g>
</g>
</svg>
