<?xml version="1.0" encoding="iso-8859-1"?>
<!-- Generator: Adobe Illustrator 23.0.1, SVG Export Plug-In . SVG Version: 6.00 Build 0)  -->
<svg version="1.1" id="share_x5F_android-layer" xmlns="http://www.w3.org/2000/svg" xmlns:xlink="http://www.w3.org/1999/xlink"
	 x="0px" y="0px" viewBox="0 0 18 18" style="enable-background:new 0 0 18 18;" xml:space="preserve">
<g id="share_x5F_android">
	<rect y="0" style="opacity:0.25;fill:none;" width="18" height="18"/>
	<path d="M14.5,13c-0.694,0-1.322,0.283-1.775,0.74L5.972,9.276C5.982,9.184,6,9.094,6,9c0-0.094-0.018-0.184-0.028-0.276
		l6.753-4.465C13.179,4.716,13.806,5,14.5,5C15.881,5,17,3.88,17,2.5S15.881,0,14.5,0S12,1.119,12,2.5
		c0,0.253,0.049,0.491,0.118,0.721L5.544,7.568C5.092,6.924,4.347,6.5,3.5,6.5C2.119,6.5,1,7.619,1,9s1.119,2.5,2.5,2.5
		c0.847,0,1.592-0.423,2.044-1.067l6.573,4.346C12.048,15.008,12,15.247,12,15.5c0,1.381,1.119,2.5,2.5,2.5s2.5-1.119,2.5-2.5
		S15.881,13,14.5,13z M14.5,1.2c0.717,0,1.3,0.583,1.3,1.3c0,0.717-0.583,1.3-1.3,1.3s-1.3-0.583-1.3-1.3
		C13.2,1.783,13.783,1.2,14.5,1.2z M3.5,10.3c-0.717,0-1.3-0.583-1.3-1.3c0-0.717,0.583-1.3,1.3-1.3S4.8,8.283,4.8,9
		C4.8,9.717,4.217,10.3,3.5,10.3z M14.5,16.8c-0.717,0-1.3-0.583-1.3-1.3s0.583-1.3,1.3-1.3s1.3,0.583,1.3,1.3
		S15.217,16.8,14.5,16.8z"/>
</g>
</svg>
