<?xml version="1.0" encoding="iso-8859-1"?>
<!-- Generator: Adobe Illustrator 23.0.1, SVG Export Plug-In . SVG Version: 6.00 Build 0)  -->
<svg version="1.1" id="shopping_x5F_cart-layer" xmlns="http://www.w3.org/2000/svg" xmlns:xlink="http://www.w3.org/1999/xlink"
	 x="0px" y="0px" viewBox="0 0 18 18" style="enable-background:new 0 0 18 18;" xml:space="preserve">
<g id="shopping_x5F_cart_1_">
	<g style="opacity:0.25;">
		<rect style="fill:none;" width="18" height="18"/>
	</g>
	<path d="M15,14H4.361l0.808-2h9.395L18,3.5H2.294L1.283,1H0v0.026l4.156,10.281L3.067,14H2.5C1.672,14,1,14.672,1,15.5
		S1.672,17,2.5,17S4,16.328,4,15.5c0-0.103-0.01-0.203-0.03-0.3h9.561c-0.02,0.097-0.03,0.197-0.03,0.3c0,0.828,0.672,1.5,1.5,1.5
		s1.5-0.672,1.5-1.5S15.828,14,15,14z M16.109,4.775l-2.405,5.95H5.295l-2.405-5.95H16.109z"/>
</g>
</svg>
