<?xml version="1.0" encoding="iso-8859-1"?>
<!-- Generator: Adobe Illustrator 23.0.1, SVG Export Plug-In . SVG Version: 6.00 Build 0)  -->
<svg version="1.1" id="shortcuts-layer" xmlns="http://www.w3.org/2000/svg" xmlns:xlink="http://www.w3.org/1999/xlink" x="0px"
	 y="0px" viewBox="0 0 18 18" style="enable-background:new 0 0 18 18;" xml:space="preserve">
<g id="shortcuts">
	<path d="M0,0v18h18V0H0z M16.8,16.8H1.2V1.2h15.6V16.8z M5.819,14.47l0.424,0.425l4.957-4.957l2.699,2.7V3.996L5.26,3.997
		l2.727,2.727L5.819,8.891C4.281,10.429,4.281,12.932,5.819,14.47z M6.668,9.738l3.016-3.015L8.156,5.196L12.7,5.195v4.544
		L11.201,8.24L6.29,13.151c-0.278-0.436-0.426-0.942-0.426-1.472C5.864,10.947,6.149,10.258,6.668,9.738z"/>
	<g style="opacity:0.25;">
		<rect y="0" style="fill:none;" width="18" height="18"/>
	</g>
</g>
</svg>
