<?xml version="1.0" encoding="iso-8859-1"?>
<!-- Generator: Adobe Illustrator 23.0.1, SVG Export Plug-In . SVG Version: 6.00 Build 0)  -->
<svg version="1.1" id="signature_x5F_live-layer" xmlns="http://www.w3.org/2000/svg" xmlns:xlink="http://www.w3.org/1999/xlink"
	 x="0px" y="0px" viewBox="0 0 18.024 18" style="enable-background:new 0 0 18.024 18;" xml:space="preserve">
<g id="signature_x5F_live">
	<rect y="0" style="opacity:0.25;fill:none;" width="18" height="18"/>
	<path d="M15.634,14.685c-0.651-0.649-1.71-0.649-2.361,0.001l-1.632,1.633c-0.184,0.183-0.482,0.183-0.665,0.001l-1.634-1.635
		c-0.651-0.649-1.71-0.649-2.361,0.001l-1.329,1.328c-0.621,0.621-1.48,0.882-2.361,0.715c-1.022-0.193-1.865-1.046-2.049-2.072
		c-0.141-0.79,0.059-1.558,0.563-2.16c0.498-0.594,1.227-0.936,2.001-0.936v-1.199c-1.13,0-2.195,0.497-2.922,1.364
		c-0.726,0.867-1.026,2.013-0.825,3.142c0.27,1.506,1.506,2.757,3.007,3.041c0.243,0.046,0.487,0.068,0.729,0.068
		c1.009,0,1.984-0.394,2.705-1.114l1.328-1.328c0.183-0.184,0.481-0.184,0.665-0.001l1.634,1.635
		c0.65,0.648,1.709,0.648,2.361-0.001l1.632-1.633c0.183-0.184,0.481-0.184,0.665-0.001l2.39,2.39l0.849-0.848L15.634,14.685z
		 M17.508,3.607c0.656-0.656,0.656-1.719,0-2.375l-0.74-0.74C16.44,0.164,16.01,0,15.58,0s-0.86,0.164-1.188,0.492L6.298,8.587L4,14
		l5.413-2.298L17.508,3.607z M6.265,11.735l1.046-2.464l7.93-7.93c0.122-0.122,0.265-0.14,0.339-0.14s0.217,0.018,0.339,0.14
		l0.74,0.74c0.187,0.187,0.187,0.491,0,0.678l-7.93,7.93L6.265,11.735z"/>
</g>
</svg>
