<?xml version="1.0" encoding="iso-8859-1"?>
<!-- Generator: Adobe Illustrator 23.0.1, SVG Export Plug-In . SVG Version: 6.00 Build 0)  -->
<svg version="1.1" id="status_x5F_information_x5F_ondark-layer"
	 xmlns="http://www.w3.org/2000/svg" xmlns:xlink="http://www.w3.org/1999/xlink" x="0px" y="0px" viewBox="0 0 18 18"
	 style="enable-background:new 0 0 18 18;" xml:space="preserve">
<g id="status_x5F_information_x5F_ondark_1_">
	<rect y="0" transform="matrix(-1 -1.224647e-16 1.224647e-16 -1 18 18)" style="opacity:0.25;fill:none;" width="18" height="18"/>
	<path style="fill:#FFFFFF;" d="M9,0C4.029,0,0,4.029,0,9c0,4.97,4.029,9,9,9s9-4.03,9-9C18,4.029,13.971,0,9,0z M9.9,14.25H8.1v-6
		h1.8V14.25z M9.001,6.25c-0.69,0-1.25-0.56-1.25-1.25c0-0.69,0.56-1.25,1.25-1.25s1.25,0.56,1.25,1.25
		C10.251,5.69,9.691,6.25,9.001,6.25z"/>
</g>
</svg>
