<svg id="survey-layer" xmlns="http://www.w3.org/2000/svg" viewBox="0 0 18 18"><defs><style>.cls-1{fill:none;}</style></defs><title>survey</title><polygon points="17.05 5.88 12.4 10.53 10.43 8.56 9.48 9.51 12.4 12.43 18 6.84 17.05 5.88"/><path d="M3.2,6.06v4.25H7.46V6.06Zm3.3,3.3H4.15V7H6.5Z" transform="translate(0 0)"/><path d="M3.2,11.3v4.25H7.46V11.3Zm3.3,3.3H4.15V12.25H6.5Z" transform="translate(0 0)"/><path d="M13.9,12.64v4.25H1.15V9.45h0V3.06H3.71V4.8h7.64V3.06H13.9V7.33L15,6.2V1.91H11.3L9.44,0H5.62L3.7,1.91H0V18H15V11.41Zm-9-10.26L6.09,1.15H9l1.2,1.23V3.66H4.85Z" transform="translate(0 0)"/><rect class="cls-1" width="18" height="18"/></svg>