<?xml version="1.0" encoding="iso-8859-1"?>
<!-- Generator: Adobe Illustrator 23.0.1, SVG Export Plug-In . SVG Version: 6.00 Build 0)  -->
<svg version="1.1" id="task-layer" xmlns="http://www.w3.org/2000/svg" xmlns:xlink="http://www.w3.org/1999/xlink" x="0px" y="0px"
	 viewBox="0 0 18 18" style="enable-background:new 0 0 18 18;" xml:space="preserve">
<g id="task">
	<g style="opacity:0.25;">
		<rect style="fill:none;" width="18" height="18"/>
	</g>
	<path d="M8,8.2h5V7H8V8.2z M5,8.2h1.2V7H5V8.2z M8,11.2h5V10H8V11.2z M5,11.2h1.2V10H5V11.2z M8,14.2h5V13H8V14.2z M5,14.2h1.2V13
		H5V14.2z M13,2l-2-2H7L5,2l0,0v0H1v16h16V2H13z M6.2,2.497L7.497,1.2h3.006L11.8,2.497V3.8H6.2L6.2,2.497z M15.8,16.8H2.2V3.2H5V5
		h8V3.2h2.8V16.8z"/>
</g>
</svg>
