<?xml version="1.0" encoding="iso-8859-1"?>
<!-- Generator: Adobe Illustrator 23.0.1, SVG Export Plug-In . SVG Version: 6.00 Build 0)  -->
<svg version="1.1" id="time-layer" xmlns="http://www.w3.org/2000/svg" xmlns:xlink="http://www.w3.org/1999/xlink" x="0px" y="0px"
	 viewBox="0 0 18 18" style="enable-background:new 0 0 18 18;" xml:space="preserve">
<g id="time">
	<rect y="0" style="opacity:0.25;fill:none;" width="18" height="18"/>
	<path d="M9,0C4.03,0,0,4.029,0,9c0,4.971,4.03,9,9,9s9-4.029,9-9C18,4.029,13.97,0,9,0z M9,16.8c-4.301,0-7.8-3.499-7.8-7.8
		c0-4.301,3.499-7.8,7.8-7.8s7.8,3.499,7.8,7.8C16.8,13.301,13.301,16.8,9,16.8z M9.6,3H8.4v6.6H13V8.4H9.6V3z"/>
</g>
</svg>
