<svg id="add_circle_active-layer" data-name="add circle active-layer" xmlns="http://www.w3.org/2000/svg" viewBox="0 0 18.02 18"><defs><style>.cls-1{fill:none;}</style></defs><title>Touch swipe double finger</title><polygon points="3.62 0 2.02 0 3.92 2 0.01 2 0.01 3.1 3.81 3.1 2.02 5 3.62 5 6.12 2.5 3.62 0"/><path d="M16.69,8.53l-2.86-1V4.08a2.07,2.07,0,0,0-2-2.18h-.12a2.06,2.06,0,0,0-1.56.72A2.07,2.07,0,0,0,6.55,4s0,.08,0,.12v6l-.43-.43a2.08,2.08,0,0,0-2.94,2.94l4.23,4.19A4.15,4.15,0,0,0,10.36,18h4.51A3.12,3.12,0,0,0,18,14.91V10.46A2.08,2.08,0,0,0,16.69,8.53Zm0,6.35a1.87,1.87,0,0,1-1.87,1.87H10.36A2.89,2.89,0,0,1,8.3,15.9L4.07,11.67A.83.83,0,0,1,5.25,10.5l.43.43,2.13,2.13v-9a.9.9,0,0,1,.65-.91h.18a.82.82,0,0,1,.62.29l.32.36V8.26h1.24V3.8l.32-.36a.82.82,0,0,1,.62-.29h.18a.9.9,0,0,1,.65.91v4.4l.85.28,2.81.94a.83.83,0,0,1,.49.76Z" transform="translate(0 0)"/><rect class="cls-1" width="18" height="18"/></svg>