<svg id="add_circle_active-layer" data-name="add circle active-layer" xmlns="http://www.w3.org/2000/svg" viewBox="0 0 18 18"><defs><style>.cls-1{fill:none;}</style></defs><title>Touch drag double finger</title><polygon points="15.48 0 13.88 0 15.79 2 13.19 2 13.19 3.1 15.69 3.1 13.88 5 15.48 5 17.98 2.5 15.48 0"/><polygon points="4.82 2 2.21 2 4.12 0 2.52 0 0.01 2.5 2.52 5 4.12 5 2.31 3.1 4.82 3.1 4.82 2"/><path d="M15.49,8.57l-2.84-.95V4.13a2.07,2.07,0,0,0-2-2.13h-.07A2.06,2.06,0,0,0,9,2.67a2.08,2.08,0,0,0-3.6,1.4v6L5,9.65a2.09,2.09,0,1,0-3,2.92H2l4.22,4.22a4.14,4.14,0,0,0,3,1.21h4.49a3.1,3.1,0,0,0,3.1-3.1h0V10.48A2.07,2.07,0,0,0,15.49,8.57Zm.05,6.33a1.86,1.86,0,0,1-1.86,1.86H9.19a2.88,2.88,0,0,1-2-.85L2.93,11.69A.83.83,0,0,1,4.1,10.52l.43.43,2.12,2.12V4.13a.9.9,0,0,1,.65-.91h.18a.82.82,0,0,1,.62.29l.31.36V8.3H9.65V3.85L10,3.49a.82.82,0,0,1,.62-.29h.18a.9.9,0,0,1,.65.91v4.4l.85.28,2.8.93a.82.82,0,0,1,.49.76Z"/><rect class="cls-1" width="18" height="18"/></svg>