<svg id="add_circle_active-layer" data-name="add circle active-layer" xmlns="http://www.w3.org/2000/svg" viewBox="0 0 18 18"><defs><style>.cls-1{fill:none;}</style></defs><title>Touch expand</title><path d="M7.66,2.34a.79.79,0,0,1,.57.23L10.8,5.15V6.8l.82.27,5,1.66A.3.3,0,0,1,16.8,9v6a1.8,1.8,0,0,1-1.8,1.8H11.66a2.78,2.78,0,0,1-2-.82L6,12.29a.8.8,0,0,1,1.13-1.13l2,2V5.81l-.35-.35L7.09,3.7a.8.8,0,0,1,.57-1.37m0-1.2a2,2,0,0,0-1.41.59h0a2,2,0,0,0,0,2.83h0L8,6.31v4a2,2,0,0,0-2.83,0h0a2,2,0,0,0,0,2.83h0L8.83,16.8A4,4,0,0,0,11.66,18H15a3,3,0,0,0,3-3V9a1.5,1.5,0,0,0-1-1.42L12,6V4.65L9.07,1.72A2,2,0,0,0,7.66,1.13Z" transform="translate(0 0)"/><polygon points="5 7.57 3 9.53 3 6.88 3 4.97 3 2.33 5 4.28 5 2.54 2.49 0.03 0 2.52 0 4.28 2 2.33 2 4.97 2 6.88 2 9.53 0 7.57 0 9.3 2.51 11.82 5 9.32 5 7.57"/><rect class="cls-1" width="18" height="18"/></svg>