<svg id="add_circle_active-layer" data-name="add circle active-layer" xmlns="http://www.w3.org/2000/svg" viewBox="0 0 18 18"><defs><style>.cls-1{fill:none;}</style></defs><title>Touch contract</title><path d="M7.66,2.37a.79.79,0,0,1,.57.23L10.8,5.18V6.83l.82.27,5,1.66A.3.3,0,0,1,16.8,9v6A1.8,1.8,0,0,1,15,16.8H11.66a2.78,2.78,0,0,1-2-.82L6,12.32a.8.8,0,0,1,1.13-1.13l2,2V5.84l-.35-.35L7.09,3.73a.8.8,0,0,1,.57-1.37m0-1.2a2,2,0,0,0-1.41.59h0a2,2,0,0,0,0,2.83h0L8,6.34v4a2,2,0,0,0-2.83,0h0a2,2,0,0,0,0,2.83h0l3.66,3.66A4,4,0,0,0,11.66,18H15a3,3,0,0,0,3-3V9a1.5,1.5,0,0,0-1-1.42L12,6V4.68L9.07,1.75A2,2,0,0,0,7.66,1.16Z" transform="translate(0 0)"/><polygon points="5 8.65 2.5 6.15 0 8.65 0 10.41 2 8.45 2 12 3 12 3 8.45 5 10.41 5 8.65"/><polygon points="5 1.59 3 3.55 3 0 2 0 2 3.55 0 1.59 0 3.33 2.51 5.85 5 3.34 5 1.59"/><rect class="cls-1" width="18" height="18"/></svg>