<svg id="add_circle_active-layer" data-name="add circle active-layer" xmlns="http://www.w3.org/2000/svg" viewBox="0 0 18.01 18"><defs><style>.cls-1{fill:none;}</style></defs><title>Touch swipe down</title><polygon points="0 3 2 5 4 3 4 1.6 2.5 3.2 2.5 0 1.5 0 1.5 3.2 0 1.6 0 3"/><path d="M17.16,9.94,13.63,6.4A1.9,1.9,0,0,0,11.54,6L6.39,8.57,4.14,6.32A1.9,1.9,0,0,0,1.45,9l5.19,5.2H6.08a1.9,1.9,0,1,0,0,3.8h5.48a3.8,3.8,0,0,0,2.69-1.11L17.16,14a2.85,2.85,0,0,0,0-4Zm-.81,3.23-2.92,2.92a2.64,2.64,0,0,1-1.88.78H6.08a.76.76,0,0,1,0-1.52H9.4l-1.95-2L2.26,8.2A.76.76,0,0,1,3.33,7.12h0L5.58,9.37l.58.58.74-.37L12,7a.76.76,0,0,1,.81.17l3.54,3.54a1.71,1.71,0,0,1,0,2.42h0Z" transform="translate(0 0)"/><rect class="cls-1" width="18" height="18"/></svg>