<?xml version="1.0" encoding="utf-8"?>
<!-- Generator: Adobe Illustrator 20.1.0, SVG Export Plug-In . SVG Version: 6.00 Build 0)  -->
<svg version="1.1" id="add_circle_active-layer" xmlns="http://www.w3.org/2000/svg" xmlns:xlink="http://www.w3.org/1999/xlink"
	 x="0px" y="0px" viewBox="0 0 18 18" style="enable-background:new 0 0 18 18;" xml:space="preserve">
<style type="text/css">
	.st0{fill:none;}
</style>
<title>Touch swipe up</title>
<polygon points="4,2 2,0 0,2 0,3.4 1.5,1.8 1.5,5 2.5,5 2.5,1.8 4,3.4 "/>
<path d="M17.2,9.9l-3.5-3.5c-0.5-0.5-1.4-0.7-2.1-0.4L6.4,8.6L4.1,6.3c-0.8-0.7-2-0.7-2.7,0.1C0.8,7.1,0.8,8.3,1.4,9l5.2,5.2H6.1
	c-1,0-1.9,0.9-1.9,1.9S5,18,6.1,18h5.5c1,0,2-0.4,2.7-1.1l2.9-2.9C18.2,12.9,18.2,11.1,17.2,9.9L17.2,9.9z M16.3,13.2l-2.9,2.9
	c-0.5,0.5-1.2,0.8-1.9,0.8H6.1c-0.4,0-0.8-0.3-0.8-0.8c0-0.4,0.3-0.8,0.8-0.8h3.3l-1.9-2L2.3,8.2C2,7.9,2,7.4,2.2,7.1
	c0.3-0.3,0.8-0.3,1.1,0l0,0l0,0l2.2,2.3l0.6,0.6l0.7-0.4L12,7c0.3-0.1,0.6,0,0.8,0.2l3.5,3.5C17,11.4,17,12.5,16.3,13.2
	C16.3,13.1,16.3,13.1,16.3,13.2L16.3,13.2L16.3,13.2z"/>
<rect x="0" y="0" class="st0" width="18" height="18"/>
</svg>
