<svg id="add_circle_active-layer" data-name="add circle active-layer" xmlns="http://www.w3.org/2000/svg" viewBox="0 0 18 18"><defs><style>.cls-1{fill:none;}</style></defs><title>Touch tap</title><path d="M7.52,4.66a.75.75,0,0,1,.75.75v3.1L9,8.77l2.8.93,2.52.84a.74.74,0,0,1,.44.68v4a1.68,1.68,0,0,1-1.68,1.68h-4a2.59,2.59,0,0,1-1.88-.78l-3.8-3.8a.75.75,0,0,1,0-1.06h0a.71.71,0,0,1,.49-.19.82.82,0,0,1,.58.24l.36.36,1.91,1.91V5.41a.75.75,0,0,1,.75-.75m0-1.12A1.87,1.87,0,0,0,5.66,5.41v5.45L5.3,10.5A1.94,1.94,0,0,0,3.94,10a1.83,1.83,0,0,0-1.25.49,1.87,1.87,0,0,0,0,2.64l0,0,3.8,3.8a3.73,3.73,0,0,0,2.59,1h4.05a2.8,2.8,0,0,0,2.8-2.8h0v-4a1.87,1.87,0,0,0-1.17-1.73l-2.56-.8-2.8-.93V5.41A1.87,1.87,0,0,0,7.52,3.54Z"/><rect x="6.97" width="1.05" height="2.62"/><rect x="2.12" y="4.22" width="2.62" height="1.05"/><rect x="10.4" y="4.22" width="2.62" height="1.05"/><rect x="4.31" y="0.85" width="1.05" height="2.62" transform="translate(-0.11 4.05) rotate(-45)"/><rect x="8.98" y="1.63" width="2.62" height="1.05" transform="translate(1.49 7.91) rotate(-45)"/><rect class="cls-1" width="18" height="18"/></svg>