<svg id="add_circle_active-layer" data-name="add circle active-layer" xmlns="http://www.w3.org/2000/svg" viewBox="0 0 18 18"><defs><style>.cls-1{fill:none;}</style></defs><title>Touch tap double finger</title><rect x="2.21" y="4.49" width="2.36" height="1.03"/><rect x="13.23" y="4.49" width="2.32" height="1.03"/><rect x="4.26" y="1.2" width="1.03" height="2.56" transform="translate(-0.35 4.11) rotate(-45)"/><rect x="8.96" y="0.84" width="2.56" height="1.03" transform="translate(7.31 11.26) rotate(-81.07)"/><rect x="7.04" y="0.06" width="1.03" height="2.56" transform="translate(-0.12 1.19) rotate(-8.93)"/><rect x="11.71" y="1.97" width="2.56" height="1.03" transform="translate(2.05 9.91) rotate(-45)"/><path d="M14.64,9.66l-2.52-.84V5.73a1.83,1.83,0,0,0-1.75-1.91h-.08a1.82,1.82,0,0,0-1.37.63,1.82,1.82,0,0,0-1.37-.63,1.89,1.89,0,0,0-.37,0A1.89,1.89,0,0,0,5.72,5.73V11l-.38-.38A1.83,1.83,0,0,0,2.75,13.2l3.73,3.73A3.66,3.66,0,0,0,9.06,18h4a2.74,2.74,0,0,0,2.74-2.74v-3.9A1.83,1.83,0,0,0,14.64,9.66Zm0,5.6A1.65,1.65,0,0,1,13,16.91H9a2.55,2.55,0,0,1-1.78-.76L3.52,12.42a.73.73,0,0,1,1-1l.38.38,1.91,1.85V5.73a.8.8,0,0,1,.58-.8h.16a.72.72,0,0,1,.55.26l.28.32V9.42h1.1V5.49l.28-.32a.72.72,0,0,1,.55-.26h.16a.8.8,0,0,1,.58.8v3.9l.75.25,2.48.83a.73.73,0,0,1,.43.67Z"/><rect class="cls-1" x="0.01" width="18" height="18"/></svg>