<?xml version="1.0" encoding="utf-8"?>
<!-- Generator: Adobe Illustrator 20.1.0, SVG Export Plug-In . SVG Version: 6.00 Build 0)  -->
<svg version="1.1" id="add_circle_active-layer" xmlns="http://www.w3.org/2000/svg" xmlns:xlink="http://www.w3.org/1999/xlink"
	 x="0px" y="0px" viewBox="0 0 18 18" style="enable-background:new 0 0 18 18;" xml:space="preserve">
<style type="text/css">
	.st0{fill:none;}
</style>
<title>Touch swipe</title>
<polygon points="3.6,0 2,0 3.9,2 0,2 0,3.1 3.8,3.1 2,5 3.6,5 6.1,2.5 "/>
<path d="M16.7,8.6l-2.8-1l-3.1-1V4.1C10.8,3,9.9,2,8.7,2S6.7,3,6.7,4.1c0,0,0,0,0,0v6L6.3,9.7C5.9,9.3,5.3,9.1,4.8,9.1
	c-0.5,0-1,0.2-1.4,0.5c-0.8,0.8-0.9,2.1-0.1,2.9c0,0,0.1,0.1,0.1,0.1l4.2,4.2c0.8,0.8,1.8,1.2,2.9,1.2h4.5c1.7,0,3.1-1.4,3.1-3.1
	l0,0v-4.4C18,9.7,17.5,8.9,16.7,8.6z M16.8,14.9c0,1-0.8,1.8-1.9,1.8h-4.5c-0.8,0-1.5-0.3-2-0.8l-4.2-4.2c-0.3-0.3-0.3-0.8,0-1.2
	c0,0,0,0,0,0c0.1-0.1,0.3-0.2,0.5-0.2c0.2,0,0.5,0.1,0.6,0.3L5.8,11l2.1,2.1v-9c0-0.5,0.4-0.8,0.8-0.8s0.8,0.4,0.8,0.8v3.4l0.8,0.3
	l3.1,1l2.8,0.9c0.3,0.1,0.5,0.4,0.5,0.8L16.8,14.9z"/>
<rect y="0" class="st0" width="18" height="18"/>
</svg>
