<?xml version="1.0" encoding="iso-8859-1"?>
<!-- Generator: Adobe Illustrator 23.0.1, SVG Export Plug-In . SVG Version: 6.00 Build 0)  -->
<svg version="1.1" id="trade_x5F_finance-layer" xmlns="http://www.w3.org/2000/svg" xmlns:xlink="http://www.w3.org/1999/xlink"
	 x="0px" y="0px" viewBox="0 0 18 18" style="enable-background:new 0 0 18 18;" xml:space="preserve">
<g id="trade_x5F_finance">
	<rect style="opacity:0.25;fill:none;" width="18" height="18"/>
	<path d="M10.164,0.083l1.65,1.65C14.726,2.865,16.8,5.691,16.8,8.999c0,3.968-2.98,7.246-6.819,7.731l-1.133-1.132l1.201-1.202
		C12.585,13.906,14.5,11.678,14.5,9c0-2.318-1.436-4.297-3.465-5.106l-0.959,0.959C11.925,5.334,13.3,7.002,13.3,9
		c0,2.193-1.657,3.988-3.781,4.247l-2.368,2.352l2.436,2.371C14.283,17.666,18,13.771,18,8.999C18,4.424,14.583,0.655,10.164,0.083z
		 M1.2,8.999c0-3.968,2.981-7.247,6.819-7.731L9.151,2.4L7.948,3.603C5.414,4.094,3.5,6.322,3.5,9c0,2.318,1.435,4.296,3.464,5.106
		l0.959-0.959C6.075,12.665,4.7,10.997,4.7,9c0-2.193,1.656-3.987,3.78-4.247L10.849,2.4L8.413,0.029C3.717,0.333,0,4.227,0,8.999
		c0,4.575,3.417,8.345,7.837,8.916l-1.65-1.65C3.274,15.134,1.2,12.307,1.2,8.999z M8.579,5.908v0.477
		C7.709,6.539,7.15,7.128,7.15,7.953c0,1.114,0.993,1.422,1.464,1.567l0.406,0.13l0.004,0.002C9.65,9.847,9.65,9.942,9.65,10.075
		c0,0.371-0.483,0.411-0.69,0.411c-0.604,0-0.608-0.229-0.609-0.339l-1.2,0.018c0.012,0.811,0.561,1.369,1.429,1.494v0.431H9.51
		v-0.468c0.817-0.178,1.34-0.751,1.34-1.547c0-1.111-0.992-1.421-1.468-1.569l0,0.001l-0.407-0.13C8.35,8.183,8.35,8.086,8.35,7.953
		c0-0.371,0.483-0.411,0.69-0.411c0.604,0,0.608,0.229,0.609,0.339l1.2-0.018c-0.012-0.782-0.525-1.325-1.34-1.474v-0.48H8.579z"/>
</g>
</svg>
