<?xml version="1.0" encoding="iso-8859-1"?>
<!-- Generator: Adobe Illustrator 23.0.1, SVG Export Plug-In . SVG Version: 6.00 Build 0)  -->
<svg version="1.1" id="trade-layer" xmlns="http://www.w3.org/2000/svg" xmlns:xlink="http://www.w3.org/1999/xlink" x="0px"
	 y="0px" viewBox="0 0 18 18" style="enable-background:new 0 0 18 18;" xml:space="preserve">
<g id="trade">
	<rect style="opacity:0.25;fill:none;" width="18" height="18"/>
	<path d="M1.2,8.999c0-3.968,2.981-7.247,6.819-7.731L9.151,2.4L7.948,3.603C5.414,4.094,3.5,6.322,3.5,9
		c0,2.318,1.435,4.296,3.464,5.106l0.959-0.959C6.075,12.665,4.7,10.997,4.7,9c0-2.193,1.656-3.987,3.78-4.247L10.849,2.4
		L8.413,0.029C3.717,0.333,0,4.227,0,8.999c0,4.575,3.417,8.345,7.837,8.916l-1.65-1.65C3.274,15.134,1.2,12.307,1.2,8.999z
		 M10.164,0.083l1.65,1.65C14.726,2.865,16.8,5.691,16.8,8.999c0,3.968-2.98,7.246-6.819,7.731l-1.133-1.132l1.201-1.202
		C12.585,13.906,14.5,11.678,14.5,9c0-2.318-1.436-4.297-3.465-5.106l-0.959,0.959C11.925,5.334,13.3,7.002,13.3,9
		c0,2.193-1.657,3.988-3.781,4.247l-2.368,2.352l2.436,2.371C14.283,17.666,18,13.771,18,8.999C18,4.424,14.583,0.655,10.164,0.083z
		"/>
</g>
</svg>
