<?xml version="1.0" encoding="iso-8859-1"?>
<!-- Generator: Adobe Illustrator 23.0.1, SVG Export Plug-In . SVG Version: 6.00 Build 0)  -->
<svg version="1.1" id="transfer-layer" xmlns="http://www.w3.org/2000/svg" xmlns:xlink="http://www.w3.org/1999/xlink" x="0px"
	 y="0px" viewBox="0 0 18 18" style="enable-background:new 0 0 18 18;" xml:space="preserve">
<g id="transfer">
	
		<rect y="0" transform="matrix(-1.836970e-16 1 -1 -1.836970e-16 18 5.458745e-12)" style="opacity:0.25;fill:none;" width="18" height="18"/>
	<path d="M9,0C4.029,0,0,4.029,0,9c0,4.971,4.029,9,9,9s9-4.029,9-9C18,4.029,13.971,0,9,0z M9,16.8c-4.301,0-7.8-3.499-7.8-7.8
		c0-4.301,3.499-7.8,7.8-7.8s7.8,3.499,7.8,7.8C16.8,13.301,13.301,16.8,9,16.8z M9.302,9h1.697l3-3l-3-3H9.302l2.4,2.4H4V6.6h7.702
		L9.302,9z M8.698,9H7.002l-3,3l3,3h1.697l-2.4-2.4H14V11.4H6.298L8.698,9z"/>
</g>
</svg>
