<?xml version="1.0" encoding="iso-8859-1"?>
<!-- Generator: Adobe Illustrator 23.0.1, SVG Export Plug-In . SVG Version: 6.00 Build 0)  -->
<svg version="1.1" id="transfer_x5F_global-layer" xmlns="http://www.w3.org/2000/svg" xmlns:xlink="http://www.w3.org/1999/xlink"
	 x="0px" y="0px" viewBox="0 0 18 18" style="enable-background:new 0 0 18 18;" xml:space="preserve">
<g id="transfer_x5F_global">
	<rect y="0" style="opacity:0.4;fill:none;" width="18" height="18"/>
	<path d="M9,0C4.029,0,0,4.029,0,9c0,4.971,4.029,9,9,9s9-4.029,9-9C18,4.029,13.971,0,9,0z M16.77,8.4h-2.8
		c-0.136-2.854-1.214-5.345-2.821-6.892C14.222,2.391,16.518,5.111,16.77,8.4z M9.6,16.221V9.6h3.166
		C12.613,12.549,11.363,15.044,9.6,16.221z M9.6,8.4V1.779c1.763,1.177,3.013,3.672,3.166,6.622H9.6z M1.23,9.6h4.321l-2.4,2.4
		h1.697l3.001-3L4.848,6H3.151l2.4,2.4H1.23C1.523,4.578,4.578,1.523,8.4,1.23V16.77C4.578,16.476,1.523,13.422,1.23,9.6z
		 M11.149,16.492c1.607-1.547,2.685-4.038,2.821-6.892h2.8C16.518,12.888,14.222,15.609,11.149,16.492z"/>
</g>
</svg>
