<?xml version="1.0" encoding="iso-8859-1"?>
<!-- Generator: Adobe Illustrator 23.0.1, SVG Export Plug-In . SVG Version: 6.00 Build 0)  -->
<svg version="1.1" id="travel-layer" xmlns="http://www.w3.org/2000/svg" xmlns:xlink="http://www.w3.org/1999/xlink" x="0px"
	 y="0px" viewBox="0 0 18 18" style="enable-background:new 0 0 18 18;" xml:space="preserve">
<g id="travel_1_">
	<path d="M16.5,3.5H13V2c0-0.825-0.675-1.5-1.5-1.5h-5C5.675,0.5,5,1.175,5,2v1.5H1.5C0.675,3.5,0,4.175,0,5v11
		c0,0.825,0.675,1.5,1.5,1.5h15c0.825,0,1.5-0.675,1.5-1.5V5C18,4.175,17.325,3.5,16.5,3.5z M13.8,10.3h-2.6V6.964l1.3-1.3l1.3,1.3
		V10.3z M10,6.467V11.5h3.8v4.8H5.2V4.7h6.567L10,6.467z M6.2,2c0-0.163,0.137-0.3,0.3-0.3h5c0.163,0,0.3,0.137,0.3,0.3v1.5H6.2V2z
		 M1.2,16V5c0-0.163,0.137-0.3,0.3-0.3H4v11.6H1.5C1.337,16.3,1.2,16.163,1.2,16z M16.8,16c0,0.163-0.137,0.3-0.3,0.3H15V6.467
		L13.233,4.7H16.5c0.163,0,0.3,0.137,0.3,0.3V16z"/>
	<rect style="opacity:0.25;fill:none;" width="18" height="18"/>
</g>
</svg>
