<?xml version="1.0" encoding="iso-8859-1"?>
<!-- Generator: Adobe Illustrator 23.0.1, SVG Export Plug-In . SVG Version: 6.00 Build 0)  -->
<svg version="1.1" id="user-layer" xmlns="http://www.w3.org/2000/svg" xmlns:xlink="http://www.w3.org/1999/xlink" x="0px" y="0px"
	 viewBox="0 0 18 18" style="enable-background:new 0 0 18 18;" xml:space="preserve">
<g id="user_1_">
	<rect style="opacity:0.25;fill:none;" width="18" height="18"/>
	<path d="M16.191,12.775c-0.198-0.489-0.478-0.944-0.846-1.322c-0.875-0.901-1.97-1.583-3.262-2.002l-3.073,3.073L5.932,9.445
		c-1.299,0.419-2.399,1.103-3.278,2.008c-0.368,0.379-0.648,0.833-0.846,1.322L0,17.25h18L16.191,12.775z M2.921,13.225
		c0.149-0.368,0.349-0.683,0.594-0.935c0.595-0.613,1.305-1.099,2.115-1.45l2.533,2.533l0.849,0.848l0.848-0.848l2.526-2.526
		c0.804,0.35,1.508,0.834,2.099,1.443c0.245,0.252,0.445,0.567,0.594,0.936l1.142,2.825H1.779L2.921,13.225z M9.01,9.25
		c2.449,0,3.49-2.298,3.49-4.359c0-2.14-1.021-4.141-3.49-4.141c-2.469,0-3.51,1.982-3.51,4.141C5.5,7.011,6.52,9.25,9.01,9.25z
		 M9.01,1.95c2.067,0,2.29,2.057,2.29,2.941c0,1.173-0.482,3.159-2.29,3.159c-2.199,0-2.31-2.631-2.31-3.159
		C6.7,4.007,6.925,1.95,9.01,1.95z"/>
</g>
</svg>
