<?xml version="1.0" encoding="iso-8859-1"?>
<!-- Generator: Adobe Illustrator 23.0.1, SVG Export Plug-In . SVG Version: 6.00 Build 0)  -->
<svg version="1.1" id="user_x5F_multiple-layer" xmlns="http://www.w3.org/2000/svg" xmlns:xlink="http://www.w3.org/1999/xlink"
	 x="0px" y="0px" viewBox="0 0 18 18" style="enable-background:new 0 0 18 18;" xml:space="preserve">
<g id="user_x5F_multiple">
	<rect style="opacity:0.25;fill:none;" width="18" height="18"/>
	<path d="M9.074,3.833C9.057,3.66,9.05,3.51,9.05,3.431c0-0.833,0.222-2.231,1.708-2.231c1.472,0,1.692,1.398,1.692,2.231
		c0,0.239-0.058,2.252-1.547,2.387c0.155,0.359,0.281,0.742,0.354,1.165c1.665-0.291,2.393-1.995,2.393-3.552
		C13.65,1.658,12.804,0,10.758,0S7.85,1.642,7.85,3.431c0,0.014,0.003,0.029,0.003,0.043C8.293,3.533,8.703,3.651,9.074,3.833z
		 M11.313,8.688c-0.043,0.448-0.13,0.854-0.252,1.225c0.92-0.046,1.799-0.29,2.582-0.737c0.513,0.257,0.968,0.589,1.358,0.991
		c0.177,0.182,0.321,0.41,0.43,0.679l0.79,1.955h-2.756c0.275,0.341,0.517,0.715,0.691,1.146L14.178,14H18l-1.457-3.605
		c-0.159-0.394-0.385-0.76-0.681-1.065c-0.638-0.657-1.421-1.17-2.335-1.512C12.892,8.295,12.14,8.592,11.313,8.688z M12.362,13.33
		c-0.705-0.726-1.587-1.275-2.627-1.613l-2.476,2.475l-2.48-2.48c-1.047,0.337-1.932,0.889-2.64,1.617
		c-0.296,0.305-0.522,0.671-0.681,1.065L0,18h14.5l-1.457-3.604C12.884,14.001,12.658,13.635,12.362,13.33z M1.779,16.8l0.79-1.956
		c0.108-0.268,0.253-0.497,0.429-0.678c0.423-0.435,0.92-0.787,1.485-1.052l1.926,1.926l0.849,0.848l0.848-0.848l1.921-1.92
		c0.56,0.264,1.054,0.614,1.473,1.046c0.176,0.181,0.321,0.41,0.429,0.679l0.79,1.955H1.779z M7.258,11.659
		c2.029,0,2.892-1.904,2.892-3.612c0-1.773-0.846-3.431-2.892-3.431S4.35,6.258,4.35,8.048C4.35,9.804,5.195,11.659,7.258,11.659z
		 M7.258,5.816c1.472,0,1.692,1.398,1.692,2.231c0,0.247-0.047,2.412-1.692,2.412c-1.626,0-1.708-2.009-1.708-2.412
		C5.55,7.214,5.772,5.816,7.258,5.816z"/>
</g>
</svg>
