<?xml version="1.0" encoding="iso-8859-1"?>
<!-- Generator: Adobe Illustrator 23.0.1, SVG Export Plug-In . SVG Version: 6.00 Build 0)  -->
<svg version="1.1" id="user_x5F_staff-layer" xmlns="http://www.w3.org/2000/svg" xmlns:xlink="http://www.w3.org/1999/xlink"
	 x="0px" y="0px" viewBox="0 0 18 18" style="enable-background:new 0 0 18 18;" xml:space="preserve">
<g id="user_x5F_staff_1_">
	<rect style="opacity:0.25;fill:none;" width="18" height="18"/>
	<path d="M16.191,12.775c-0.198-0.489-0.478-0.944-0.846-1.322c-0.875-0.901-1.97-1.583-3.262-2.002l-3.073,3.073L5.932,9.445
		c-1.299,0.419-2.399,1.103-3.278,2.008c-0.368,0.379-0.648,0.833-0.846,1.322L0,17.25h18L16.191,12.775z M1.779,16.05l1.142-2.825
		c0.149-0.368,0.348-0.683,0.593-0.935c0.231-0.238,0.493-0.439,0.758-0.638L6.05,16.05H1.779z M8.4,16.05H7.344L5.31,11.016
		c0.11-0.055,0.206-0.127,0.32-0.176l2.533,2.533L8.4,13.61V16.05z M9.6,16.05v-2.418l0.259-0.259l2.526-2.526
		c0.114,0.05,0.21,0.122,0.32,0.177l-2.031,5.027H9.6z M13.742,11.662c0.259,0.196,0.517,0.394,0.743,0.627
		c0.245,0.252,0.445,0.567,0.594,0.936l1.142,2.825h-4.252L13.742,11.662z M9.01,9.25c2.449,0,3.49-2.298,3.49-4.359
		c0-2.14-1.021-4.141-3.49-4.141c-2.469,0-3.51,1.982-3.51,4.141C5.5,7.011,6.52,9.25,9.01,9.25z M9.01,1.95
		c2.067,0,2.29,2.057,2.29,2.941c0,1.173-0.482,3.159-2.29,3.159c-2.199,0-2.31-2.631-2.31-3.159C6.7,4.007,6.925,1.95,9.01,1.95z"
		/>
</g>
</svg>
