<?xml version="1.0" encoding="iso-8859-1"?>
<!-- Generator: Adobe Illustrator 23.0.1, SVG Export Plug-In . SVG Version: 6.00 Build 0)  -->
<svg version="1.1" id="view-layer" xmlns="http://www.w3.org/2000/svg" xmlns:xlink="http://www.w3.org/1999/xlink" x="0px" y="0px"
	 viewBox="0 0 18 18" style="enable-background:new 0 0 18 18;" xml:space="preserve">
<g id="view">
	<rect style="opacity:0.4;fill:none;" width="18" height="18"/>
	<path d="M9,3C4.973,3,1.516,5.469,0,9c1.516,3.53,4.973,6,9,6s7.484-2.47,9-6C16.484,5.469,13.027,3,9,3z M12.551,7.75
		c0,1.958-1.593,3.55-3.551,3.55S5.449,9.708,5.449,7.75S7.042,4.2,9,4.2S12.551,5.792,12.551,7.75z M9,13.8
		c-3.25,0-6.209-1.867-7.677-4.8c0.821-1.64,2.117-2.928,3.66-3.762C4.525,5.968,4.25,6.825,4.25,7.75c0,2.623,2.127,4.75,4.75,4.75
		s4.75-2.127,4.75-4.75c0-0.925-0.276-1.782-0.733-2.512c1.543,0.833,2.84,2.122,3.66,3.762C15.209,11.933,12.25,13.8,9,13.8z"/>
</g>
</svg>
