<?xml version="1.0" encoding="utf-8"?>
<!-- Generator: Adobe Illustrator 19.0.0, SVG Export Plug-In . SVG Version: 6.00 Build 0)  -->
<svg version="1.1" id="Layer_vimeo" xmlns="http://www.w3.org/2000/svg" xmlns:xlink="http://www.w3.org/1999/xlink" x="0px" y="0px"
	 viewBox="0 0 128 128" style="enable-background:new 0 0 128 128;" xml:space="preserve">
<style type="text/css">
	.st0{fill:#3FB7EA;}
	.st1{fill:#FFFFFF;}
</style>
<g>
	<path id="XMLID_5_" class="st0" d="M64,128L64,128C28.7,128,0,99.3,0,64v0C0,28.7,28.7,0,64,0h0c35.3,0,64,28.7,64,64v0
		C128,99.3,99.3,128,64,128z"/>
	<path id="XMLID_4_" class="st1" d="M95.7,49.3c-0.3,6.2-4.6,14.7-13,25.5c-8.7,11.3-16,16.9-22,16.9c-3.7,0-6.9-3.4-9.4-10.3
		c-1.7-6.3-3.4-12.6-5.1-18.9c-1.9-6.9-4-10.3-6.1-10.3c-0.5,0-2.1,1-5,3l-3-3.9c3.1-2.8,6.2-5.5,9.3-8.3c4.2-3.6,7.3-5.5,9.4-5.7
		c5-0.5,8,2.9,9.2,10.2c1.2,7.8,2.1,12.7,2.6,14.6c1.4,6.5,3,9.8,4.7,9.8c1.3,0,3.3-2.1,6-6.3c2.7-4.2,4.1-7.4,4.3-9.6
		c0.4-3.6-1.1-5.5-4.3-5.5c-1.5,0-3.1,0.4-4.7,1c3.1-10.3,9.1-15.3,18-15C93,36.7,96.1,40.9,95.7,49.3z"/>
</g>
</svg>
