<?xml version="1.0" encoding="iso-8859-1"?>
<!-- Generator: Adobe Illustrator 23.0.1, SVG Export Plug-In . SVG Version: 6.00 Build 0)  -->
<svg version="1.1" id="voice-layer" xmlns="http://www.w3.org/2000/svg" xmlns:xlink="http://www.w3.org/1999/xlink" x="0px"
	 y="0px" viewBox="0 0 18 18" style="enable-background:new 0 0 18 18;" xml:space="preserve">
<g id="voice">
	<rect y="0" style="opacity:0.25;fill:none;" width="18" height="18"/>
	<path d="M9,13c2.75,0,5-2.25,5-5V5c0-2.75-2.25-5-5-5S4,2.25,4,5v3C4,10.75,6.25,13,9,13z M5.2,5c0-2.095,1.705-3.8,3.8-3.8
		s3.8,1.705,3.8,3.8v3c0,2.095-1.705,3.8-3.8,3.8S5.2,10.095,5.2,8V5z M15.4,6v2c0,3.529-2.871,6.4-6.4,6.4S2.6,11.529,2.6,8V6H1.4
		v2c0,3.988,3.09,7.261,7,7.569V16.8H5V18h3.4h1.2H13v-1.2H9.6v-1.231c3.91-0.308,7-3.581,7-7.569V6H15.4z"/>
</g>
</svg>
