<?xml version="1.0" encoding="iso-8859-1"?>
<!-- Generator: Adobe Illustrator 23.0.1, SVG Export Plug-In . SVG Version: 6.00 Build 0)  -->
<svg version="1.1" id="volume_x5F_high-layer" xmlns="http://www.w3.org/2000/svg" xmlns:xlink="http://www.w3.org/1999/xlink"
	 x="0px" y="0px" viewBox="0 0 18 18" style="enable-background:new 0 0 18 18;" xml:space="preserve">
<g id="volume_x5F_high">
	<g style="opacity:0.3;">
		<rect y="0" style="fill:none;" width="18" height="18"/>
	</g>
	<path d="M11.89,6.299C12.566,7,12.988,7.95,12.988,9c0,1.098-0.459,2.087-1.192,2.796l0.848,0.848
		c0.95-0.927,1.544-2.216,1.544-3.644c0-1.381-0.556-2.63-1.45-3.55L11.89,6.299z M15.214,2.974l-0.848,0.848
		c1.31,1.336,2.122,3.163,2.122,5.178c0,2.062-0.85,3.929-2.216,5.272l0.848,0.848c1.583-1.561,2.568-3.727,2.568-6.12
		C17.688,6.654,16.742,4.527,15.214,2.974z M0,5v8h5l5,5V0L5,5H0z M5.849,5.849L8.8,2.897v12.206l-2.951-2.952L5.497,11.8H1.2V6.2
		h4.297L5.849,5.849z"/>
</g>
</svg>
