<?xml version="1.0" encoding="utf-8"?>
<!-- Generator: Adobe Illustrator 19.0.0, SVG Export Plug-In . SVG Version: 6.00 Build 0)  -->
<svg version="1.1" id="Layer_whatsapp" xmlns="http://www.w3.org/2000/svg" xmlns:xlink="http://www.w3.org/1999/xlink" x="0px" y="0px"
	 viewBox="0 0 128 128" style="enable-background:new 0 0 128 128;" xml:space="preserve">
<style type="text/css">
	.st0{fill:#25D366;}
	.st1{fill-rule:evenodd;clip-rule:evenodd;fill:#FFFFFF;}
</style>
<g>
	<path id="XMLID_6_" class="st0" d="M64,128L64,128C28.7,128,0,99.3,0,64v0C0,28.7,28.7,0,64,0h0c35.3,0,64,28.7,64,64v0
		C128,99.3,99.3,128,64,128z"/>
	<g id="WA_Logo_2_">
		<g id="XMLID_43_">
			<path id="XMLID_44_" class="st1" d="M86.5,41.3c-6-6-13.9-9.3-22.4-9.3c-17.5,0-31.7,14.2-31.7,31.7c0,5.6,1.5,11,4.2,15.8
				L32.2,96L49,91.6c4.6,2.5,9.8,3.9,15.1,3.9h0c0,0,0,0,0,0c17.5,0,31.7-14.2,31.7-31.7C95.8,55.3,92.5,47.3,86.5,41.3z M64.1,90.1
				L64.1,90.1c-4.7,0-9.4-1.3-13.4-3.7l-1-0.6l-10,2.6l2.7-9.7l-0.6-1c-2.6-4.2-4-9-4-14c0-14.5,11.8-26.3,26.3-26.3
				c7,0,13.6,2.7,18.6,7.7c5,5,7.7,11.6,7.7,18.6C90.5,78.3,78.6,90.1,64.1,90.1z M78.6,70.3c-0.8-0.4-4.7-2.3-5.4-2.6
				c-0.7-0.3-1.3-0.4-1.8,0.4c-0.5,0.8-2,2.6-2.5,3.1c-0.5,0.5-0.9,0.6-1.7,0.2c-0.8-0.4-3.3-1.2-6.4-3.9c-2.4-2.1-3.9-4.7-4.4-5.5
				c-0.5-0.8,0-1.2,0.3-1.6c0.4-0.4,0.8-0.9,1.2-1.4c0.4-0.5,0.5-0.8,0.8-1.3c0.3-0.5,0.1-1-0.1-1.4c-0.2-0.4-1.8-4.3-2.4-5.9
				c-0.6-1.5-1.3-1.3-1.8-1.4c-0.5,0-1,0-1.5,0s-1.4,0.2-2.1,1c-0.7,0.8-2.8,2.7-2.8,6.6c0,3.9,2.8,7.7,3.2,8.2
				c0.4,0.5,5.6,8.5,13.5,12c1.9,0.8,3.4,1.3,4.5,1.7c1.9,0.6,3.6,0.5,5,0.3c1.5-0.2,4.7-1.9,5.3-3.8c0.7-1.8,0.7-3.4,0.5-3.8
				C79.9,70.9,79.4,70.7,78.6,70.3z"/>
		</g>
	</g>
</g>
</svg>
