<?xml version="1.0" encoding="iso-8859-1"?>
<!-- Generator: Adobe Illustrator 23.0.1, SVG Export Plug-In . SVG Version: 6.00 Build 0)  -->
<svg version="1.1" id="wifi-layer" xmlns="http://www.w3.org/2000/svg" xmlns:xlink="http://www.w3.org/1999/xlink" x="0px" y="0px"
	 viewBox="0 0 18 18" style="enable-background:new 0 0 18 18;" xml:space="preserve">
<g id="wifi">
	<rect style="opacity:0.25;fill:none;" width="18" height="18"/>
	<g>
		<path d="M9,11.821c-0.981,0-1.866,0.406-2.501,1.057L9,15.379l2.501-2.501C10.866,12.227,9.981,11.821,9,11.821z"/>
		<path d="M9,8.746c-1.831,0-3.485,0.749-4.677,1.956l0.852,0.852C6.15,10.563,7.503,9.946,9,9.946s2.85,0.617,3.825,1.608
			l0.852-0.852C12.485,9.495,10.831,8.746,9,8.746z"/>
		<path d="M9,5.721c-2.666,0-5.076,1.088-6.816,2.842l0.851,0.851C4.559,7.876,6.669,6.921,9,6.921s4.441,0.955,5.965,2.493
			l0.851-0.851C14.076,6.809,11.666,5.721,9,5.721z"/>
		<path d="M9,2.621c-3.518,0-6.7,1.431-9,3.742v0.017l0.844,0.844C2.929,5.124,5.815,3.821,9,3.821s6.071,1.303,8.156,3.403
			L18,6.379V6.362C15.7,4.052,12.518,2.621,9,2.621z"/>
	</g>
</g>
</svg>
